<?xml version="1.0" encoding="utf-8"?>
<!-- Generator: Adobe Illustrator 24.3.0, SVG Export Plug-In . SVG Version: 6.00 Build 0)  -->
<svg version="1.1" id="Layer_1" xmlns="http://www.w3.org/2000/svg" xmlns:xlink="http://www.w3.org/1999/xlink" x="0px" y="0px"
	 viewBox="0 0 348 76" style="enable-background:new 0 0 348 76;" xml:space="preserve">
<style type="text/css">
	.st0{fill:#9EA77A;}
	.st1{fill:#F3F8F1;}
	.st2{font-family:'SukhumvitSet-Thin';}
	.st3{font-size:35px;}
	.st4{fill:none;stroke:#F3F8F1;}
</style>
<path id="Rectangle_5" class="st0" d="M38,0h272c21,0,38,17,38,38l0,0c0,21-17,38-38,38H38C17,76,0,59,0,38l0,0C0,17,17,0,38,0z"/>
<text transform="matrix(1 0 0 1 35 49)" class="st1 st2 st3">ADD TO CART</text>
<g id="Group_15" transform="translate(270.594 22.162)">
	<g id="Group_4">
		<path id="Path_50" class="st1" d="M25.9,20.7c1-0.7,1.7-1.7,2-2.9l3.7-11.1H7.6L7.3,3.8C7.1,1.6,5.3,0,3.2,0H0v2.5h3.2
			C4,2.5,4.8,3.1,4.8,4l1.9,21.4v0c0.2,1.9,1.6,3.4,3.4,3.7c0.6,1.9,2.7,2.9,4.6,2.3c1.1-0.4,1.9-1.2,2.3-2.2H20
			c0.7,1.9,2.8,2.9,4.7,2.2s2.9-2.8,2.2-4.7c-0.7-1.9-2.8-2.9-4.7-2.2c-1,0.4-1.8,1.2-2.2,2.2h-2.9c-0.7-1.9-2.8-2.9-4.7-2.2
			c-1,0.4-1.7,1.1-2.1,2.1c-0.6-0.2-1-0.8-1-1.4l-0.3-3.4h13.6C23.7,21.8,24.9,21.4,25.9,20.7z M23.4,26.8c0.6,0,1.2,0.5,1.2,1.2
			s-0.5,1.2-1.2,1.2c-0.6,0-1.2-0.5-1.2-1.2C22.2,27.3,22.8,26.8,23.4,26.8z M13.7,26.8c0.6,0,1.2,0.5,1.2,1.2s-0.5,1.2-1.2,1.2
			s-1.2-0.5-1.2-1.2l0,0C12.5,27.3,13,26.8,13.7,26.8z M8.7,19.3L8.7,19.3L7.8,9.2h20.4L25.6,17l0,0c-0.4,1.3-1.6,2.2-3,2.3
			L8.7,19.3z"/>
	</g>
</g>
<g id="Group_17" transform="translate(284.101 32.922)">
	<line id="Line_7" class="st4" x1="3.3" y1="0" x2="3.3" y2="6.5"/>
	<line id="Line_8" class="st4" x1="0" y1="3.3" x2="6.5" y2="3.3"/>
</g>
</svg>
