<?xml version="1.0" encoding="utf-8"?>
<!-- Generator: Adobe Illustrator 25.0.0, SVG Export Plug-In . SVG Version: 6.00 Build 0)  -->
<svg version="1.1" id="Layer_1" xmlns="http://www.w3.org/2000/svg" xmlns:xlink="http://www.w3.org/1999/xlink" x="0px" y="0px"
	 viewBox="0 0 250 54" style="enable-background:new 0 0 250 54;" xml:space="preserve">
<style type="text/css">
	.st0{fill:#9EA77A;}
	.st1{fill:#F3F8F1;}
	.st2{font-family:'SukhumvitSet-Thin';}
	.st3{font-size:20px;}
	.st4{enable-background:new    ;}
	.st5{fill:none;}
</style>
<g transform="matrix(1, 0, 0, 1, 0, 0)">
	<path id="Rectangle_2-2" class="st0" d="M23,0h204c12.7,0,23,10.3,23,23v8c0,12.7-10.3,23-23,23H23C10.3,54,0,43.7,0,31v-8
		C0,10.3,10.3,0,23,0z"/>
</g>
<text transform="matrix(1 0 0 1 60.37 32)" class="st1 st2 st3">Complete order</text>
<g class="st4">
	<path class="st5" d="M67.7,19.2c-1.7,0-3,0.5-3.9,1.5c-0.9,1-1.4,2.5-1.4,4.5c0,1,0.1,1.8,0.4,2.6c0.2,0.7,0.6,1.4,1,1.9
		c0.5,0.5,1,0.9,1.6,1.2c0.6,0.3,1.4,0.4,2.2,0.4c0.6,0,1.2-0.1,1.7-0.2c0.5-0.1,0.9-0.3,1.3-0.5l0.2,0.8c-0.2,0.1-0.5,0.2-0.7,0.3
		c-0.2,0.1-0.5,0.2-0.7,0.2c-0.3,0.1-0.5,0.1-0.8,0.2c-0.3,0-0.6,0-1,0c-1.1,0-2-0.2-2.7-0.5c-0.8-0.3-1.4-0.8-1.9-1.4
		c-0.5-0.6-0.9-1.3-1.1-2.2c-0.2-0.8-0.4-1.8-0.4-2.8s0.1-2,0.4-2.8c0.3-0.8,0.7-1.6,1.2-2.2s1.2-1.1,2-1.4c0.8-0.3,1.7-0.5,2.7-0.5
		c0.6,0,1.2,0.1,1.7,0.2c0.5,0.1,1,0.3,1.3,0.5l-0.2,0.8c-0.4-0.2-0.8-0.3-1.3-0.4C68.7,19.3,68.2,19.2,67.7,19.2z"/>
	<path class="st5" d="M76.5,22.2c0.7,0,1.4,0.1,1.9,0.4c0.5,0.2,1,0.6,1.4,1c0.4,0.4,0.6,1,0.8,1.6c0.2,0.6,0.3,1.3,0.3,2
		s-0.1,1.4-0.3,2c-0.2,0.6-0.5,1.1-0.8,1.6c-0.4,0.4-0.8,0.8-1.4,1c-0.5,0.2-1.2,0.4-1.9,0.4s-1.4-0.1-1.9-0.4c-0.5-0.2-1-0.6-1.4-1
		c-0.4-0.4-0.6-1-0.8-1.6c-0.2-0.6-0.3-1.3-0.3-2s0.1-1.4,0.3-2c0.2-0.6,0.5-1.1,0.8-1.6c0.4-0.4,0.8-0.8,1.4-1
		C75.1,22.3,75.8,22.2,76.5,22.2z M76.5,31.4c0.6,0,1.1-0.1,1.6-0.3c0.4-0.2,0.8-0.5,1.1-0.9c0.3-0.4,0.5-0.8,0.6-1.3
		c0.1-0.5,0.2-1.1,0.2-1.7s-0.1-1.2-0.2-1.7c-0.1-0.5-0.3-1-0.6-1.3c-0.3-0.4-0.6-0.7-1.1-0.9c-0.4-0.2-1-0.3-1.6-0.3
		c-0.6,0-1.1,0.1-1.5,0.3c-0.4,0.2-0.8,0.5-1.1,0.9c-0.3,0.4-0.5,0.8-0.6,1.3c-0.1,0.5-0.2,1.1-0.2,1.7s0.1,1.2,0.2,1.7
		c0.1,0.5,0.3,1,0.6,1.3c0.3,0.4,0.6,0.7,1.1,0.9C75.4,31.3,75.9,31.4,76.5,31.4z"/>
	<path class="st5" d="M84.4,32h-0.9v-9.7h0.7l0.2,1.9c0.1-0.2,0.3-0.5,0.6-0.7c0.2-0.2,0.5-0.5,0.8-0.7c0.3-0.2,0.6-0.4,0.9-0.5
		s0.7-0.2,1.1-0.2c0.7,0,1.3,0.2,1.6,0.6c0.4,0.4,0.6,0.9,0.8,1.6c0.3-0.6,0.8-1.1,1.4-1.6c0.6-0.4,1.3-0.6,2-0.6
		c0.9,0,1.5,0.3,1.9,0.9c0.4,0.6,0.6,1.4,0.6,2.5V32h-0.9v-6.4c0-0.8-0.1-1.4-0.3-1.9c-0.2-0.5-0.7-0.7-1.4-0.7
		c-0.6,0-1.2,0.2-1.8,0.6c-0.6,0.4-1.1,0.9-1.4,1.6c0,0.1,0,0.1,0,0.2c0,0,0,0.1,0,0.2V32h-0.9v-6.4c0-0.8-0.1-1.4-0.3-1.9
		c-0.2-0.5-0.7-0.7-1.4-0.7c-0.3,0-0.7,0.1-1,0.2s-0.6,0.3-0.9,0.5c-0.3,0.2-0.5,0.4-0.8,0.7c-0.2,0.3-0.4,0.6-0.6,0.9V32z"/>
	<path class="st5" d="M103.6,32.2c-0.8,0-1.5-0.2-2-0.6c-0.6-0.4-1-0.9-1.4-1.5v5.7h-0.9V22.3h0.7l0.2,1.9c0.2-0.2,0.4-0.5,0.6-0.7
		c0.2-0.2,0.5-0.5,0.8-0.7c0.3-0.2,0.6-0.4,1-0.5c0.4-0.1,0.8-0.2,1.2-0.2c0.5,0,1,0.1,1.5,0.3s0.9,0.5,1.2,0.9
		c0.3,0.4,0.6,0.9,0.8,1.5s0.3,1.3,0.3,2.2c0,0.9-0.1,1.7-0.3,2.3c-0.2,0.6-0.5,1.2-0.9,1.6c-0.4,0.4-0.8,0.7-1.3,0.9
		C104.7,32.1,104.2,32.2,103.6,32.2z M103.6,31.3c0.4,0,0.8-0.1,1.1-0.2c0.4-0.1,0.7-0.4,1-0.7c0.3-0.3,0.5-0.8,0.7-1.3
		c0.2-0.5,0.3-1.2,0.3-2c0-0.7-0.1-1.4-0.2-1.9c-0.2-0.5-0.4-0.9-0.6-1.3c-0.3-0.3-0.6-0.6-0.9-0.7c-0.4-0.2-0.7-0.2-1.1-0.2
		c-0.7,0-1.4,0.2-2,0.6c-0.6,0.4-1.1,0.9-1.6,1.7v2.5c0,0.4,0.1,0.9,0.2,1.3c0.1,0.4,0.4,0.8,0.6,1.2c0.3,0.3,0.6,0.6,1.1,0.8
		C102.5,31.2,103,31.3,103.6,31.3z"/>
	<path class="st5" d="M111.2,32h-0.9V18.5h0.9V32z"/>
	<path class="st5" d="M114.8,27.6c0.1,1.1,0.4,2,1,2.7c0.6,0.7,1.5,1,2.7,1c0.5,0,1-0.1,1.4-0.2c0.4-0.1,0.8-0.3,1.1-0.5l0.2,0.7
		c-0.3,0.2-0.7,0.4-1.2,0.5c-0.5,0.1-1,0.2-1.6,0.2c-0.8,0-1.4-0.1-2-0.4c-0.6-0.2-1-0.6-1.4-1c-0.4-0.4-0.7-1-0.8-1.6
		c-0.2-0.6-0.3-1.3-0.3-2s0.1-1.4,0.3-2c0.2-0.6,0.5-1.1,0.8-1.6c0.4-0.4,0.8-0.8,1.4-1c0.5-0.2,1.2-0.4,1.9-0.4
		c1.2,0,2.1,0.3,2.7,1c0.6,0.7,0.9,1.6,0.9,2.8c0,0.3,0,0.5-0.1,0.8c0,0.3-0.1,0.6-0.2,0.8H114.8z M118.2,22.9
		c-0.6,0-1.1,0.1-1.5,0.3c-0.4,0.2-0.8,0.5-1,0.8c-0.3,0.3-0.5,0.8-0.6,1.3c-0.1,0.5-0.2,1-0.2,1.6h6.1c0-0.1,0-0.3,0.1-0.4
		c0-0.2,0-0.3,0-0.5c0-1.1-0.2-1.8-0.7-2.3C119.9,23.2,119.2,22.9,118.2,22.9z"/>
	<path class="st5" d="M125.7,29.5c0,0.7,0.1,1.2,0.3,1.4c0.2,0.3,0.6,0.4,1.1,0.4c0.3,0,0.6,0,0.9-0.1c0.3-0.1,0.5-0.2,0.7-0.4
		l0.3,0.7c-0.2,0.2-0.5,0.3-0.8,0.4c-0.3,0.1-0.7,0.2-1.1,0.2c-0.7,0-1.3-0.2-1.7-0.6c-0.4-0.4-0.6-1.1-0.6-2v-6.4h-1.7v-0.8h1.7
		l0.3-2.8h0.6v2.8h3.1v0.8h-3.1V29.5z"/>
	<path class="st5" d="M131.4,27.6c0.1,1.1,0.4,2,1,2.7c0.6,0.7,1.5,1,2.7,1c0.5,0,1-0.1,1.4-0.2c0.4-0.1,0.8-0.3,1.1-0.5l0.2,0.7
		c-0.3,0.2-0.7,0.4-1.2,0.5c-0.5,0.1-1,0.2-1.6,0.2c-0.8,0-1.4-0.1-2-0.4c-0.6-0.2-1-0.6-1.4-1c-0.4-0.4-0.7-1-0.8-1.6
		c-0.2-0.6-0.3-1.3-0.3-2s0.1-1.4,0.3-2c0.2-0.6,0.5-1.1,0.8-1.6c0.4-0.4,0.8-0.8,1.4-1c0.5-0.2,1.2-0.4,1.9-0.4
		c1.2,0,2.1,0.3,2.7,1c0.6,0.7,0.9,1.6,0.9,2.8c0,0.3,0,0.5-0.1,0.8c0,0.3-0.1,0.6-0.2,0.8H131.4z M134.8,22.9
		c-0.6,0-1.1,0.1-1.5,0.3s-0.8,0.5-1,0.8s-0.5,0.8-0.6,1.3c-0.1,0.5-0.2,1-0.2,1.6h6.1c0-0.1,0-0.3,0.1-0.4c0-0.2,0-0.3,0-0.5
		c0-1.1-0.2-1.8-0.7-2.3S135.7,22.9,134.8,22.9z"/>
	<path class="st5" d="M150.2,22.2c0.7,0,1.4,0.1,1.9,0.4c0.5,0.2,1,0.6,1.3,1c0.4,0.4,0.6,1,0.8,1.6c0.2,0.6,0.3,1.3,0.3,2
		s-0.1,1.4-0.3,2c-0.2,0.6-0.5,1.1-0.8,1.6c-0.4,0.4-0.8,0.8-1.3,1c-0.5,0.2-1.2,0.4-1.9,0.4s-1.4-0.1-1.9-0.4c-0.5-0.2-1-0.6-1.3-1
		c-0.4-0.4-0.6-1-0.8-1.6c-0.2-0.6-0.3-1.3-0.3-2s0.1-1.4,0.3-2c0.2-0.6,0.5-1.1,0.8-1.6c0.4-0.4,0.8-0.8,1.3-1
		C148.9,22.3,149.5,22.2,150.2,22.2z M150.2,31.4c0.6,0,1.1-0.1,1.5-0.3s0.8-0.5,1.1-0.9c0.3-0.4,0.5-0.8,0.6-1.3
		c0.1-0.5,0.2-1.1,0.2-1.7s-0.1-1.2-0.2-1.7c-0.1-0.5-0.3-1-0.6-1.3c-0.3-0.4-0.6-0.7-1.1-0.9s-1-0.3-1.5-0.3s-1.1,0.1-1.5,0.3
		c-0.4,0.2-0.8,0.5-1.1,0.9s-0.5,0.8-0.6,1.3c-0.1,0.5-0.2,1.1-0.2,1.7s0.1,1.2,0.2,1.7c0.1,0.5,0.3,1,0.6,1.3s0.6,0.7,1.1,0.9
		C149.1,31.3,149.6,31.4,150.2,31.4z"/>
	<path class="st5" d="M158.1,32h-0.9v-9.7h0.7l0.2,1.9c0.2-0.3,0.3-0.5,0.5-0.8c0.2-0.2,0.4-0.5,0.7-0.7c0.3-0.2,0.5-0.3,0.8-0.5
		c0.3-0.1,0.6-0.2,0.9-0.2c0.3,0,0.5,0,0.8,0.1c0.2,0.1,0.4,0.1,0.5,0.2l-0.2,0.9c-0.1-0.1-0.3-0.1-0.5-0.2s-0.4-0.1-0.7-0.1
		c-0.6,0-1.2,0.2-1.7,0.6s-0.9,0.9-1.2,1.5V32z"/>
	<path class="st5" d="M167.7,32.2c-0.6,0-1.1-0.1-1.6-0.3c-0.5-0.2-0.9-0.5-1.3-0.9c-0.4-0.4-0.7-0.9-0.9-1.6
		c-0.2-0.6-0.3-1.4-0.3-2.3c0-0.8,0.1-1.5,0.3-2.1c0.2-0.6,0.5-1.1,0.9-1.6c0.4-0.4,0.8-0.8,1.3-1c0.5-0.2,1-0.3,1.5-0.3
		c0.4,0,0.8,0.1,1.2,0.2c0.4,0.1,0.7,0.3,1,0.5c0.3,0.2,0.5,0.4,0.7,0.7c0.2,0.2,0.4,0.5,0.5,0.7v-5.7h0.9V32h-0.7l-0.2-1.9
		c-0.3,0.6-0.8,1.1-1.4,1.5C169.1,32,168.4,32.2,167.7,32.2z M167.7,31.3c0.5,0,1-0.1,1.4-0.3c0.4-0.2,0.7-0.5,1-0.8
		s0.5-0.7,0.6-1.2c0.1-0.4,0.2-0.9,0.2-1.3v-2.5c-0.4-0.7-0.9-1.2-1.4-1.6c-0.6-0.4-1.2-0.6-1.9-0.6c-0.4,0-0.8,0.1-1.2,0.2
		s-0.7,0.4-1,0.8c-0.3,0.3-0.5,0.8-0.7,1.3c-0.2,0.5-0.3,1.1-0.3,1.8c0,0.8,0.1,1.4,0.3,2c0.2,0.5,0.4,1,0.7,1.3
		c0.3,0.3,0.6,0.6,1,0.7C166.9,31.3,167.3,31.3,167.7,31.3z"/>
	<path class="st5" d="M175.4,27.6c0.1,1.1,0.4,2,1,2.7c0.6,0.7,1.5,1,2.7,1c0.5,0,1-0.1,1.4-0.2c0.4-0.1,0.8-0.3,1.1-0.5l0.2,0.7
		c-0.3,0.2-0.7,0.4-1.2,0.5c-0.5,0.1-1,0.2-1.6,0.2c-0.8,0-1.4-0.1-2-0.4c-0.6-0.2-1-0.6-1.4-1c-0.4-0.4-0.7-1-0.8-1.6
		c-0.2-0.6-0.3-1.3-0.3-2s0.1-1.4,0.3-2c0.2-0.6,0.5-1.1,0.8-1.6c0.4-0.4,0.8-0.8,1.4-1c0.5-0.2,1.2-0.4,1.9-0.4
		c1.2,0,2.1,0.3,2.7,1c0.6,0.7,0.9,1.6,0.9,2.8c0,0.3,0,0.5-0.1,0.8c0,0.3-0.1,0.6-0.2,0.8H175.4z M178.8,22.9
		c-0.6,0-1.1,0.1-1.5,0.3s-0.8,0.5-1,0.8s-0.5,0.8-0.6,1.3c-0.1,0.5-0.2,1-0.2,1.6h6.1c0-0.1,0-0.3,0.1-0.4c0-0.2,0-0.3,0-0.5
		c0-1.1-0.2-1.8-0.7-2.3S179.8,22.9,178.8,22.9z"/>
	<path class="st5" d="M185.9,32H185v-9.7h0.7l0.2,1.9c0.2-0.3,0.3-0.5,0.5-0.8c0.2-0.2,0.4-0.5,0.7-0.7c0.3-0.2,0.5-0.3,0.8-0.5
		c0.3-0.1,0.6-0.2,0.9-0.2c0.3,0,0.5,0,0.8,0.1c0.2,0.1,0.4,0.1,0.5,0.2l-0.2,0.9c-0.1-0.1-0.3-0.1-0.5-0.2s-0.4-0.1-0.7-0.1
		c-0.6,0-1.2,0.2-1.7,0.6s-0.9,0.9-1.2,1.5V32z"/>
</g>
</svg>
