<?xml version="1.0" encoding="utf-8"?>
<!-- Generator: Adobe Illustrator 25.0.0, SVG Export Plug-In . SVG Version: 6.00 Build 0)  -->
<svg version="1.1" id="Layer_1" xmlns="http://www.w3.org/2000/svg" xmlns:xlink="http://www.w3.org/1999/xlink" x="0px" y="0px"
	 viewBox="0 0 250 54" style="enable-background:new 0 0 250 54;" xml:space="preserve">
<style type="text/css">
	.st0{fill:#9EA77A;}
	.st1{fill:#FFFFFF;}
</style>
<g transform="matrix(1, 0, 0, 1, 0, 0)">
	<path id="Rectangle_2-2" class="st0" d="M23,0h204c12.7,0,23,10.3,23,23v8c0,12.7-10.3,23-23,23H23C10.3,54,0,43.7,0,31v-8
		C0,10.3,10.3,0,23,0z"/>
</g>
<g>
	<path class="st1" d="M65.7,19.8c-1.5,0-2.6,0.5-3.4,1.4c-0.8,0.9-1.2,2.3-1.2,4c0,1.7,0.4,3,1.2,4c0.8,0.9,2,1.4,3.5,1.4
		c0.5,0,1-0.1,1.5-0.2s1-0.3,1.4-0.5l0.4,1.5c-0.5,0.2-1,0.4-1.6,0.5s-1.2,0.2-1.8,0.2c-1.1,0-2.1-0.2-2.9-0.5
		c-0.8-0.3-1.5-0.8-2-1.4c-0.5-0.6-0.9-1.3-1.2-2.2s-0.4-1.8-0.4-2.8c0-1,0.1-1.9,0.4-2.8c0.3-0.9,0.7-1.6,1.2-2.2
		c0.5-0.6,1.2-1.1,2-1.4s1.7-0.5,2.7-0.5c0.7,0,1.3,0.1,1.8,0.2c0.5,0.1,1,0.3,1.5,0.5l-0.4,1.4C67.7,20,66.8,19.8,65.7,19.8z"/>
	<path class="st1" d="M70.2,27.1c0-0.7,0.1-1.4,0.3-2s0.5-1.1,0.8-1.6c0.4-0.4,0.8-0.8,1.4-1.1c0.6-0.3,1.3-0.4,2-0.4
		c0.8,0,1.5,0.1,2,0.4s1,0.6,1.4,1.1c0.4,0.4,0.7,1,0.8,1.6s0.3,1.3,0.3,2c0,0.7-0.1,1.4-0.3,2s-0.5,1.1-0.8,1.6
		c-0.4,0.5-0.8,0.8-1.4,1.1c-0.6,0.3-1.3,0.4-2,0.4c-0.8,0-1.5-0.1-2-0.4c-0.6-0.3-1-0.6-1.4-1.1s-0.7-1-0.8-1.6
		S70.2,27.8,70.2,27.1z M71.9,27.1c0,0.5,0.1,1,0.2,1.5c0.1,0.5,0.3,0.8,0.5,1.2c0.2,0.3,0.5,0.6,0.9,0.8s0.8,0.3,1.3,0.3
		s0.9-0.1,1.3-0.3c0.4-0.2,0.7-0.4,0.9-0.8c0.2-0.3,0.4-0.7,0.5-1.2c0.1-0.5,0.2-0.9,0.2-1.5c0-0.5-0.1-1-0.2-1.5
		c-0.1-0.4-0.3-0.8-0.5-1.2c-0.2-0.3-0.5-0.6-0.9-0.8c-0.4-0.2-0.8-0.3-1.3-0.3s-0.9,0.1-1.3,0.3s-0.7,0.4-0.9,0.8
		c-0.2,0.3-0.4,0.7-0.5,1.2C72,26.1,71.9,26.6,71.9,27.1z"/>
	<path class="st1" d="M83.4,31.9h-1.7v-9.7h1.4l0.3,1.4c0.1-0.2,0.3-0.4,0.4-0.5c0.2-0.2,0.4-0.4,0.6-0.5s0.5-0.3,0.8-0.4
		c0.3-0.1,0.7-0.2,1.1-0.2c0.6,0,1.2,0.2,1.6,0.5c0.4,0.3,0.7,0.8,0.9,1.4c0.3-0.5,0.7-0.9,1.3-1.3c0.5-0.4,1.2-0.5,1.9-0.5
		c1,0,1.7,0.3,2.1,1c0.5,0.7,0.7,1.5,0.7,2.5v6.3h-1.6v-6.3c0-0.6-0.1-1.1-0.4-1.5c-0.2-0.4-0.6-0.6-1.2-0.6c-0.3,0-0.6,0-0.8,0.2
		c-0.3,0.1-0.5,0.2-0.7,0.4c-0.2,0.2-0.4,0.4-0.6,0.6c-0.2,0.2-0.3,0.4-0.4,0.7v6.6h-1.6v-6.3c0-0.6-0.1-1.1-0.4-1.5
		c-0.2-0.4-0.6-0.6-1.1-0.6c-0.6,0-1.1,0.2-1.5,0.5c-0.4,0.3-0.8,0.7-1,1.2V31.9z"/>
	<path class="st1" d="M99.1,22.3l0.3,1.4c0.1-0.2,0.3-0.4,0.5-0.5c0.2-0.2,0.5-0.4,0.7-0.5s0.6-0.3,0.9-0.4c0.3-0.1,0.7-0.2,1.1-0.2
		c0.7,0,1.2,0.1,1.7,0.4c0.5,0.3,0.9,0.6,1.2,1.1c0.3,0.5,0.5,1,0.7,1.6s0.2,1.2,0.2,1.8c0,1.7-0.4,3-1.1,3.9s-1.7,1.3-2.9,1.3
		c-0.3,0-0.7,0-1-0.2c-0.3-0.1-0.6-0.2-0.9-0.4s-0.5-0.4-0.7-0.6s-0.4-0.5-0.5-0.7v5.5h-1.7V22.3H99.1z M99.4,27.2
		c0,0.5,0.1,1,0.2,1.4s0.4,0.8,0.6,1.1s0.6,0.5,0.9,0.7s0.7,0.2,1,0.2c0.3,0,0.7-0.1,1-0.2s0.6-0.3,0.8-0.6s0.4-0.7,0.6-1.1
		c0.1-0.5,0.2-1,0.2-1.7c0-1.1-0.2-1.9-0.7-2.5c-0.4-0.6-1-0.8-1.8-0.8c-0.6,0-1.1,0.2-1.7,0.5c-0.5,0.3-1,0.7-1.3,1.1V27.2z"/>
	<path class="st1" d="M110.6,31.9h-1.7V18.5h1.7V31.9z"/>
	<path class="st1" d="M114.7,27.8c0.1,0.9,0.4,1.7,0.9,2.2c0.5,0.5,1.3,0.8,2.2,0.8c0.4,0,0.8,0,1.3-0.1c0.5-0.1,0.9-0.2,1.3-0.4
		l0.4,1.2c-0.8,0.4-1.9,0.6-3.1,0.6c-1.6,0-2.7-0.5-3.5-1.4c-0.8-0.9-1.2-2.1-1.2-3.7c0-0.7,0.1-1.4,0.2-2s0.4-1.1,0.8-1.6
		c0.4-0.4,0.8-0.8,1.4-1.1c0.6-0.3,1.2-0.4,2-0.4c1.3,0,2.3,0.4,2.9,1.1c0.6,0.7,1,1.7,1,3c0,0.3,0,0.7,0,0.9c0,0.3-0.1,0.5-0.2,0.8
		H114.7z M117.4,23.3c-0.5,0-0.9,0.1-1.2,0.2c-0.3,0.2-0.6,0.4-0.8,0.7c-0.2,0.3-0.4,0.6-0.5,1c-0.1,0.4-0.2,0.8-0.2,1.3h5.1v-0.5
		c0-0.9-0.2-1.6-0.5-2.1C118.8,23.6,118.2,23.3,117.4,23.3z"/>
	<path class="st1" d="M125.7,29.2c0,0.5,0.1,0.9,0.2,1.1c0.1,0.3,0.5,0.4,1,0.4c0.3,0,0.6,0,0.8-0.1s0.5-0.2,0.7-0.3l0.4,1.2
		c-0.3,0.2-0.6,0.3-0.9,0.4s-0.8,0.1-1.3,0.1c-0.9,0-1.5-0.2-1.9-0.7c-0.4-0.5-0.6-1.2-0.6-2.2v-5.6h-1.5v-1.4h1.5l0.4-2.8h1.2v2.8
		h3v1.4h-3V29.2z"/>
	<path class="st1" d="M131.8,27.8c0.1,0.9,0.4,1.7,0.9,2.2c0.5,0.5,1.3,0.8,2.2,0.8c0.4,0,0.8,0,1.3-0.1c0.5-0.1,0.9-0.2,1.3-0.4
		l0.4,1.2c-0.8,0.4-1.9,0.6-3.1,0.6c-1.6,0-2.7-0.5-3.5-1.4c-0.8-0.9-1.2-2.1-1.2-3.7c0-0.7,0.1-1.4,0.2-2s0.4-1.1,0.8-1.6
		c0.4-0.4,0.8-0.8,1.4-1.1c0.6-0.3,1.2-0.4,2-0.4c1.3,0,2.3,0.4,2.9,1.1c0.6,0.7,1,1.7,1,3c0,0.3,0,0.7,0,0.9c0,0.3-0.1,0.5-0.2,0.8
		H131.8z M134.5,23.3c-0.5,0-0.9,0.1-1.2,0.2c-0.3,0.2-0.6,0.4-0.8,0.7c-0.2,0.3-0.4,0.6-0.5,1c-0.1,0.4-0.2,0.8-0.2,1.3h5.1v-0.5
		c0-0.9-0.2-1.6-0.5-2.1C136,23.6,135.4,23.3,134.5,23.3z"/>
	<path class="st1" d="M145.2,27.1c0-0.7,0.1-1.4,0.3-2s0.5-1.1,0.8-1.6c0.4-0.4,0.8-0.8,1.4-1.1c0.6-0.3,1.3-0.4,2-0.4
		c0.8,0,1.5,0.1,2,0.4s1,0.6,1.4,1.1c0.4,0.4,0.7,1,0.8,1.6s0.3,1.3,0.3,2c0,0.7-0.1,1.4-0.3,2s-0.5,1.1-0.8,1.6
		c-0.4,0.5-0.8,0.8-1.4,1.1c-0.6,0.3-1.3,0.4-2,0.4c-0.8,0-1.5-0.1-2-0.4c-0.6-0.3-1-0.6-1.4-1.1s-0.7-1-0.8-1.6
		S145.2,27.8,145.2,27.1z M146.8,27.1c0,0.5,0.1,1,0.2,1.5c0.1,0.5,0.3,0.8,0.5,1.2c0.2,0.3,0.5,0.6,0.9,0.8s0.8,0.3,1.3,0.3
		s0.9-0.1,1.3-0.3c0.4-0.2,0.7-0.4,0.9-0.8c0.2-0.3,0.4-0.7,0.5-1.2c0.1-0.5,0.2-0.9,0.2-1.5c0-0.5-0.1-1-0.2-1.5
		c-0.1-0.4-0.3-0.8-0.5-1.2c-0.2-0.3-0.5-0.6-0.9-0.8c-0.4-0.2-0.8-0.3-1.3-0.3s-0.9,0.1-1.3,0.3s-0.7,0.4-0.9,0.8
		c-0.2,0.3-0.4,0.7-0.5,1.2C146.9,26.1,146.8,26.6,146.8,27.1z"/>
	<path class="st1" d="M158.3,23.9c0.1-0.2,0.3-0.4,0.4-0.6c0.2-0.2,0.4-0.4,0.6-0.6c0.2-0.2,0.5-0.3,0.7-0.4s0.6-0.2,0.9-0.2
		c0.2,0,0.4,0,0.6,0c0.2,0,0.3,0.1,0.4,0.1c0.1,0.1,0.2,0.1,0.3,0.2l-0.5,1.7c-0.3-0.3-0.6-0.4-1.1-0.4c-1.1,0-1.9,0.5-2.4,1.6v6.6
		h-1.7v-9.7h1.4L158.3,23.9z"/>
	<path class="st1" d="M172,31.9h-1.4l-0.3-1.6c-0.1,0.2-0.3,0.5-0.5,0.7c-0.2,0.2-0.4,0.4-0.7,0.6s-0.6,0.3-0.9,0.4
		c-0.3,0.1-0.7,0.2-1,0.2c-0.6,0-1.1-0.1-1.6-0.3s-0.9-0.6-1.3-1c-0.4-0.4-0.6-0.9-0.8-1.6s-0.3-1.3-0.3-2.1c0-0.7,0.1-1.3,0.3-2
		c0.2-0.6,0.4-1.1,0.8-1.6s0.8-0.8,1.3-1.1c0.5-0.3,1.1-0.4,1.8-0.4c0.4,0,0.7,0,1,0.1c0.3,0.1,0.6,0.2,0.8,0.4s0.5,0.3,0.6,0.5
		c0.2,0.2,0.3,0.4,0.5,0.6v-5.2h1.7V31.9z M170.4,25.1c-0.3-0.5-0.7-0.8-1.2-1.1s-0.9-0.4-1.4-0.4c-0.8,0-1.5,0.3-2.1,0.9
		c-0.5,0.6-0.8,1.5-0.8,2.6c0,0.6,0.1,1.2,0.2,1.6c0.1,0.4,0.3,0.8,0.6,1.1c0.2,0.3,0.5,0.5,0.8,0.6s0.6,0.2,1,0.2
		c0.4,0,0.7-0.1,1.1-0.2c0.3-0.2,0.6-0.4,0.9-0.7s0.5-0.7,0.6-1.1s0.2-0.9,0.2-1.4V25.1z"/>
	<path class="st1" d="M176.1,27.8c0.1,0.9,0.4,1.7,0.9,2.2c0.5,0.5,1.3,0.8,2.2,0.8c0.4,0,0.8,0,1.3-0.1c0.5-0.1,0.9-0.2,1.3-0.4
		l0.4,1.2c-0.8,0.4-1.9,0.6-3.1,0.6c-1.6,0-2.7-0.5-3.5-1.4c-0.8-0.9-1.2-2.1-1.2-3.7c0-0.7,0.1-1.4,0.2-2s0.4-1.1,0.8-1.6
		c0.4-0.4,0.8-0.8,1.4-1.1c0.6-0.3,1.2-0.4,2-0.4c1.3,0,2.3,0.4,2.9,1.1c0.6,0.7,1,1.7,1,3c0,0.3,0,0.7,0,0.9c0,0.3-0.1,0.5-0.2,0.8
		H176.1z M178.8,23.3c-0.5,0-0.9,0.1-1.2,0.2c-0.3,0.2-0.6,0.4-0.8,0.7c-0.2,0.3-0.4,0.6-0.5,1c-0.1,0.4-0.2,0.8-0.2,1.3h5.1v-0.5
		c0-0.9-0.2-1.6-0.5-2.1C180.2,23.6,179.6,23.3,178.8,23.3z"/>
	<path class="st1" d="M186.8,23.9c0.1-0.2,0.3-0.4,0.4-0.6c0.2-0.2,0.4-0.4,0.6-0.6c0.2-0.2,0.5-0.3,0.7-0.4s0.6-0.2,0.9-0.2
		c0.2,0,0.4,0,0.6,0c0.2,0,0.3,0.1,0.4,0.1c0.1,0.1,0.2,0.1,0.3,0.2l-0.5,1.7c-0.3-0.3-0.6-0.4-1.1-0.4c-1.1,0-1.9,0.5-2.4,1.6v6.6
		h-1.7v-9.7h1.4L186.8,23.9z"/>
</g>
</svg>
