<?xml version="1.0" encoding="utf-8"?>
<!-- Generator: Adobe Illustrator 25.0.0, SVG Export Plug-In . SVG Version: 6.00 Build 0)  -->
<svg version="1.1" id="Layer_1" xmlns="http://www.w3.org/2000/svg" xmlns:xlink="http://www.w3.org/1999/xlink" x="0px" y="0px"
	 viewBox="0 0 250 54" style="enable-background:new 0 0 250 54;" xml:space="preserve">
<style type="text/css">
	.st0{fill:#9EA77A;}
	.st1{fill:#FFFFFF;}
</style>
<g id="Continue_to_shipping" transform="translate(10.5 8.5)">
	<g transform="matrix(1, 0, 0, 1, -10.5, -8.5)">
		<path id="Rectangle_2-2" class="st0" d="M23,0h204c12.7,0,23,10.3,23,23v8c0,12.7-10.3,23-23,23H23C10.3,54,0,43.7,0,31v-8
			C0,10.3,10.3,0,23,0z"/>
	</g>
	<g>
		<path class="st1" d="M30.4,11.4c-1.6,0-2.8,0.5-3.7,1.5s-1.3,2.4-1.3,4.2c0,1.8,0.4,3.2,1.3,4.2c0.9,1,2.1,1.5,3.7,1.5
			c0.5,0,1.1,0,1.6-0.1c0.5-0.1,1-0.2,1.4-0.4l0.3,1.1c-0.5,0.2-1,0.4-1.5,0.5S31,24,30.3,24c-1.1,0-2-0.2-2.8-0.5
			c-0.8-0.3-1.5-0.8-2-1.4c-0.5-0.6-0.9-1.3-1.2-2.2c-0.3-0.9-0.4-1.8-0.4-2.8c0-1,0.1-1.9,0.4-2.8c0.3-0.9,0.7-1.6,1.2-2.2
			c0.5-0.6,1.2-1.1,2-1.4c0.8-0.3,1.7-0.5,2.7-0.5c0.7,0,1.2,0.1,1.7,0.2c0.5,0.1,1,0.3,1.4,0.5c-0.1,0.2-0.1,0.4-0.2,0.6
			c-0.1,0.2-0.1,0.4-0.2,0.6C32.4,11.6,31.4,11.4,30.4,11.4z"/>
		<path class="st1" d="M34.9,19c0-0.7,0.1-1.4,0.3-2c0.2-0.6,0.5-1.1,0.8-1.6s0.8-0.8,1.4-1.1c0.6-0.3,1.2-0.4,2-0.4
			c0.8,0,1.4,0.1,2,0.4c0.6,0.3,1,0.6,1.4,1.1c0.4,0.5,0.7,1,0.8,1.6c0.2,0.6,0.3,1.3,0.3,2s-0.1,1.4-0.3,2
			c-0.2,0.6-0.5,1.1-0.8,1.6c-0.4,0.5-0.8,0.8-1.4,1.1s-1.2,0.4-2,0.4c-0.8,0-1.4-0.1-2-0.4c-0.6-0.3-1-0.6-1.4-1.1s-0.6-1-0.8-1.6
			S34.9,19.7,34.9,19z M36.3,19c0,0.6,0.1,1.1,0.2,1.6s0.3,0.9,0.6,1.3c0.3,0.4,0.6,0.6,1,0.8c0.4,0.2,0.9,0.3,1.4,0.3
			s1-0.1,1.4-0.3s0.7-0.5,1-0.8c0.3-0.4,0.4-0.8,0.6-1.3s0.2-1,0.2-1.6c0-0.6-0.1-1.1-0.2-1.6c-0.1-0.5-0.3-0.9-0.6-1.2
			c-0.3-0.3-0.6-0.6-1-0.8s-0.9-0.3-1.4-0.3s-1,0.1-1.4,0.3c-0.4,0.2-0.7,0.5-1,0.8c-0.3,0.3-0.4,0.8-0.6,1.2
			C36.3,17.9,36.3,18.5,36.3,19z"/>
		<path class="st1" d="M47.7,23.9h-1.3v-9.7h1.1l0.3,1.7c0.2-0.2,0.4-0.4,0.6-0.6c0.2-0.2,0.5-0.4,0.8-0.6c0.3-0.2,0.6-0.3,1-0.5
			c0.4-0.1,0.7-0.2,1.2-0.2c1,0,1.8,0.3,2.4,1c0.6,0.7,0.9,1.6,0.9,2.8v6.1h-1.3v-6.1c0-0.8-0.2-1.4-0.6-1.9
			c-0.4-0.5-0.9-0.7-1.6-0.7c-0.7,0-1.3,0.2-1.9,0.5c-0.6,0.4-1.1,0.8-1.4,1.3V23.9z"/>
		<path class="st1" d="M59.2,21.3c0,0.6,0.1,1,0.3,1.3c0.2,0.3,0.5,0.4,1.1,0.4c0.3,0,0.6,0,0.8-0.1c0.2-0.1,0.5-0.1,0.7-0.2
			c0.1,0.2,0.1,0.3,0.2,0.5c0.1,0.1,0.1,0.3,0.2,0.5c-0.2,0.1-0.5,0.3-0.9,0.3C61.2,24,60.8,24,60.4,24c-0.8,0-1.4-0.2-1.8-0.7
			c-0.4-0.4-0.6-1.1-0.6-2.1v-6h-1.6v-1.1h1.6l0.4-2.8h0.9v2.8h3v1.1h-3V21.3z"/>
		<path class="st1" d="M64.3,11.1c0-0.3,0.1-0.5,0.2-0.7c0.2-0.2,0.4-0.3,0.7-0.3c0.3,0,0.6,0.1,0.7,0.3c0.2,0.2,0.2,0.4,0.2,0.7
			s-0.1,0.5-0.2,0.7c-0.2,0.2-0.4,0.3-0.7,0.3c-0.3,0-0.5-0.1-0.7-0.3C64.4,11.5,64.3,11.3,64.3,11.1z M66,23.9h-1.4v-9.7H66V23.9z"
			/>
		<path class="st1" d="M70.5,23.9h-1.3v-9.7h1.1l0.3,1.7c0.2-0.2,0.4-0.4,0.6-0.6c0.2-0.2,0.5-0.4,0.8-0.6c0.3-0.2,0.6-0.3,1-0.5
			c0.4-0.1,0.7-0.2,1.2-0.2c1,0,1.8,0.3,2.4,1c0.6,0.7,0.9,1.6,0.9,2.8v6.1h-1.3v-6.1c0-0.8-0.2-1.4-0.6-1.9
			c-0.4-0.5-0.9-0.7-1.6-0.7c-0.7,0-1.3,0.2-1.9,0.5c-0.6,0.4-1.1,0.8-1.4,1.3V23.9z"/>
		<path class="st1" d="M87.1,14.2h1.3v9.7h-1.1L87,22c-0.1,0.2-0.3,0.5-0.5,0.7c-0.2,0.2-0.5,0.5-0.8,0.7c-0.3,0.2-0.6,0.4-1,0.5
			C84.3,24,83.9,24,83.5,24c-0.9,0-1.7-0.3-2.2-0.9c-0.6-0.6-0.9-1.6-0.9-2.9v-6.1h1.3v6.1c0,0.8,0.2,1.5,0.6,1.9
			c0.4,0.5,0.9,0.7,1.5,0.7c0.4,0,0.7-0.1,1.1-0.2c0.3-0.1,0.6-0.3,0.9-0.5c0.3-0.2,0.5-0.4,0.8-0.7c0.2-0.3,0.4-0.5,0.6-0.8V14.2z"
			/>
		<path class="st1" d="M92.1,19.6c0.1,1.1,0.4,1.9,1,2.5c0.6,0.6,1.4,0.9,2.5,0.9c0.4,0,0.9,0,1.3-0.1c0.4-0.1,0.9-0.2,1.2-0.4
			l0.3,1c-0.4,0.2-0.9,0.3-1.4,0.5c-0.5,0.1-1,0.2-1.6,0.2c-1.6,0-2.7-0.5-3.5-1.4c-0.8-0.9-1.1-2.1-1.1-3.7c0-0.7,0.1-1.4,0.3-2
			c0.2-0.6,0.4-1.1,0.8-1.6c0.4-0.4,0.8-0.8,1.4-1c0.5-0.3,1.2-0.4,2-0.4c1.2,0,2.2,0.4,2.8,1.1c0.6,0.7,1,1.7,1,2.9
			c0,0.3,0,0.6-0.1,0.9c0,0.3-0.1,0.5-0.1,0.8H92.1z M95.2,15c-0.5,0-1,0.1-1.3,0.3c-0.4,0.2-0.7,0.4-0.9,0.8
			c-0.2,0.3-0.4,0.7-0.6,1.2c-0.1,0.4-0.2,0.9-0.2,1.5h5.6c0-0.1,0-0.2,0-0.4c0-0.2,0-0.3,0-0.3c0-1-0.2-1.7-0.6-2.2
			S96.1,15,95.2,15z"/>
		<path class="st1" d="M108.3,21.3c0,0.6,0.1,1,0.3,1.3c0.2,0.3,0.5,0.4,1.1,0.4c0.3,0,0.6,0,0.8-0.1c0.2-0.1,0.5-0.1,0.7-0.2
			c0.1,0.2,0.1,0.3,0.2,0.5c0.1,0.1,0.1,0.3,0.2,0.5c-0.2,0.1-0.5,0.3-0.9,0.3c-0.3,0.1-0.7,0.1-1.2,0.1c-0.8,0-1.4-0.2-1.8-0.7
			c-0.4-0.4-0.6-1.1-0.6-2.1v-6h-1.6v-1.1h1.6l0.4-2.8h0.9v2.8h3v1.1h-3V21.3z"/>
		<path class="st1" d="M112.8,19c0-0.7,0.1-1.4,0.3-2c0.2-0.6,0.5-1.1,0.8-1.6c0.4-0.5,0.8-0.8,1.4-1.1c0.6-0.3,1.2-0.4,2-0.4
			c0.8,0,1.4,0.1,2,0.4c0.6,0.3,1,0.6,1.4,1.1c0.4,0.5,0.6,1,0.8,1.6c0.2,0.6,0.3,1.3,0.3,2s-0.1,1.4-0.3,2
			c-0.2,0.6-0.5,1.1-0.8,1.6c-0.4,0.5-0.8,0.8-1.4,1.1c-0.6,0.3-1.2,0.4-2,0.4c-0.8,0-1.4-0.1-2-0.4c-0.6-0.3-1-0.6-1.4-1.1
			c-0.4-0.5-0.6-1-0.8-1.6S112.8,19.7,112.8,19z M114.1,19c0,0.6,0.1,1.1,0.2,1.6c0.1,0.5,0.3,0.9,0.6,1.3s0.6,0.6,1,0.8
			c0.4,0.2,0.9,0.3,1.4,0.3c0.6,0,1-0.1,1.4-0.3c0.4-0.2,0.7-0.5,1-0.8c0.3-0.4,0.5-0.8,0.6-1.3s0.2-1,0.2-1.6
			c0-0.6-0.1-1.1-0.2-1.6c-0.1-0.5-0.3-0.9-0.6-1.2c-0.3-0.3-0.6-0.6-1-0.8c-0.4-0.2-0.9-0.3-1.4-0.3c-0.6,0-1,0.1-1.4,0.3
			c-0.4,0.2-0.7,0.5-1,0.8c-0.3,0.3-0.5,0.8-0.6,1.2C114.2,17.9,114.1,18.5,114.1,19z"/>
		<path class="st1" d="M131.8,23c0.9,0,1.5-0.2,1.8-0.5c0.4-0.3,0.5-0.7,0.5-1.2c0-0.3-0.1-0.5-0.2-0.7c-0.1-0.2-0.3-0.4-0.5-0.5
			c-0.2-0.2-0.5-0.3-0.8-0.4s-0.6-0.2-1-0.3c-0.4-0.1-0.7-0.3-1.1-0.4c-0.3-0.2-0.7-0.4-0.9-0.6c-0.3-0.2-0.5-0.5-0.6-0.8
			s-0.2-0.7-0.2-1c0-0.8,0.3-1.4,0.9-1.8c0.6-0.4,1.4-0.6,2.5-0.6c0.5,0,1.1,0,1.6,0.1s0.9,0.2,1.3,0.4c0,0.2-0.1,0.3-0.2,0.5
			c-0.1,0.2-0.1,0.3-0.2,0.5c-0.4-0.2-0.7-0.3-1.1-0.4c-0.4-0.1-0.8-0.1-1.3-0.1c-0.8,0-1.3,0.1-1.7,0.4c-0.4,0.3-0.5,0.6-0.5,1
			c0,0.5,0.2,0.9,0.6,1.1c0.4,0.3,0.9,0.5,1.5,0.7c1.1,0.3,1.9,0.7,2.4,1.2c0.6,0.5,0.8,1.1,0.8,1.9c0,0.8-0.3,1.4-0.9,1.9
			c-0.6,0.5-1.5,0.7-2.8,0.7c-0.6,0-1.2,0-1.7-0.1c-0.5-0.1-1-0.2-1.3-0.4c0-0.2,0.1-0.3,0.2-0.5c0.1-0.2,0.1-0.3,0.1-0.5
			c0.4,0.1,0.8,0.3,1.2,0.4S131.3,23,131.8,23z"/>
		<path class="st1" d="M139.4,23.9H138V10.3h1.3v5.5c0.2-0.2,0.4-0.4,0.6-0.6c0.2-0.2,0.5-0.4,0.8-0.6s0.6-0.3,1-0.5
			c0.4-0.1,0.8-0.2,1.2-0.2c1,0,1.8,0.3,2.4,1c0.6,0.7,0.9,1.6,0.9,2.8v6.1h-1.3v-6.1c0-0.8-0.2-1.4-0.6-1.9
			c-0.4-0.5-0.9-0.7-1.6-0.7c-0.7,0-1.3,0.2-1.9,0.5c-0.6,0.3-1.1,0.8-1.4,1.3V23.9z"/>
		<path class="st1" d="M149.1,11.1c0-0.3,0.1-0.5,0.2-0.7c0.2-0.2,0.4-0.3,0.7-0.3c0.3,0,0.6,0.1,0.7,0.3c0.2,0.2,0.2,0.4,0.2,0.7
			s-0.1,0.5-0.2,0.7c-0.2,0.2-0.4,0.3-0.7,0.3c-0.3,0-0.5-0.1-0.7-0.3C149.1,11.5,149.1,11.3,149.1,11.1z M150.7,23.9h-1.4v-9.7h1.4
			V23.9z"/>
		<path class="st1" d="M155,14.2l0.3,1.7c0.1-0.2,0.3-0.4,0.6-0.6c0.2-0.2,0.5-0.4,0.8-0.6c0.3-0.2,0.6-0.3,1-0.5
			c0.4-0.1,0.8-0.2,1.2-0.2c0.6,0,1.2,0.1,1.6,0.4c0.5,0.3,0.9,0.6,1.2,1.1c0.3,0.4,0.6,1,0.7,1.6c0.2,0.6,0.2,1.2,0.2,1.9
			c0,0.9-0.1,1.6-0.3,2.2c-0.2,0.6-0.5,1.2-0.8,1.6c-0.4,0.4-0.8,0.8-1.3,1c-0.5,0.2-1,0.3-1.6,0.3c-0.7,0-1.4-0.2-1.9-0.6
			c-0.6-0.4-1-0.8-1.3-1.3l-0.1,0v5.6h-1.3V14.2H155z M155.3,19.3c0,0.5,0.1,1,0.2,1.4c0.2,0.4,0.4,0.8,0.7,1.1
			c0.3,0.3,0.6,0.6,1,0.8c0.4,0.2,0.8,0.3,1.2,0.3c0.4,0,0.7-0.1,1.1-0.2c0.4-0.1,0.7-0.4,0.9-0.7c0.3-0.3,0.5-0.7,0.6-1.2
			s0.2-1.1,0.2-1.9c0-1.2-0.3-2.2-0.8-2.8c-0.5-0.6-1.2-0.9-1.9-0.9c-0.6,0-1.2,0.2-1.8,0.5c-0.6,0.3-1.1,0.8-1.5,1.3V19.3z"/>
		<path class="st1" d="M166.1,14.2l0.3,1.7c0.1-0.2,0.3-0.4,0.6-0.6c0.2-0.2,0.5-0.4,0.8-0.6c0.3-0.2,0.6-0.3,1-0.5
			c0.4-0.1,0.8-0.2,1.2-0.2c0.6,0,1.2,0.1,1.6,0.4c0.5,0.3,0.9,0.6,1.2,1.1c0.3,0.4,0.6,1,0.7,1.6c0.2,0.6,0.2,1.2,0.2,1.9
			c0,0.9-0.1,1.6-0.3,2.2c-0.2,0.6-0.5,1.2-0.8,1.6c-0.4,0.4-0.8,0.8-1.3,1c-0.5,0.2-1,0.3-1.6,0.3c-0.7,0-1.4-0.2-1.9-0.6
			c-0.6-0.4-1-0.8-1.3-1.3l-0.1,0v5.6H165V14.2H166.1z M166.4,19.3c0,0.5,0.1,1,0.2,1.4c0.2,0.4,0.4,0.8,0.7,1.1
			c0.3,0.3,0.6,0.6,1,0.8c0.4,0.2,0.8,0.3,1.2,0.3c0.4,0,0.7-0.1,1.1-0.2c0.4-0.1,0.7-0.4,0.9-0.7c0.3-0.3,0.5-0.7,0.6-1.2
			s0.2-1.1,0.2-1.9c0-1.2-0.3-2.2-0.8-2.8c-0.5-0.6-1.2-0.9-1.9-0.9c-0.6,0-1.2,0.2-1.8,0.5c-0.6,0.3-1.1,0.8-1.5,1.3V19.3z"/>
		<path class="st1" d="M175.9,11.1c0-0.3,0.1-0.5,0.2-0.7c0.2-0.2,0.4-0.3,0.7-0.3c0.3,0,0.6,0.1,0.7,0.3c0.2,0.2,0.2,0.4,0.2,0.7
			s-0.1,0.5-0.2,0.7c-0.2,0.2-0.4,0.3-0.7,0.3c-0.3,0-0.5-0.1-0.7-0.3C176,11.5,175.9,11.3,175.9,11.1z M177.6,23.9h-1.4v-9.7h1.4
			V23.9z"/>
		<path class="st1" d="M182.1,23.9h-1.3v-9.7h1.1l0.3,1.7c0.2-0.2,0.4-0.4,0.6-0.6c0.2-0.2,0.5-0.4,0.8-0.6c0.3-0.2,0.6-0.3,1-0.5
			c0.4-0.1,0.7-0.2,1.2-0.2c1,0,1.8,0.3,2.4,1c0.6,0.7,0.9,1.6,0.9,2.8v6.1h-1.3v-6.1c0-0.8-0.2-1.4-0.6-1.9
			c-0.4-0.5-0.9-0.7-1.6-0.7c-0.7,0-1.3,0.2-1.9,0.5c-0.6,0.4-1.1,0.8-1.4,1.3V23.9z"/>
		<path class="st1" d="M198.7,22l-0.1,0c-0.3,0.5-0.7,1-1.2,1.4c-0.6,0.4-1.2,0.6-1.9,0.6c-0.6,0-1.1-0.1-1.6-0.3
			c-0.5-0.2-0.9-0.5-1.3-0.9c-0.4-0.4-0.6-0.9-0.8-1.5s-0.3-1.3-0.3-2.1c0-0.7,0.1-1.3,0.3-1.9c0.2-0.6,0.5-1.1,0.8-1.6
			c0.4-0.4,0.8-0.8,1.3-1c0.5-0.3,1.1-0.4,1.7-0.4c0.4,0,0.7,0.1,1.1,0.2c0.3,0.1,0.6,0.3,0.9,0.5c0.3,0.2,0.5,0.4,0.7,0.6
			c0.2,0.2,0.4,0.4,0.5,0.6l0.3-1.7h1.1v9c0,0.8-0.1,1.6-0.3,2.2c-0.2,0.6-0.5,1.1-0.9,1.5c-0.4,0.4-0.8,0.7-1.4,0.8
			c-0.5,0.2-1.1,0.3-1.8,0.3c-0.7,0-1.3-0.1-1.9-0.3c-0.6-0.2-1.1-0.4-1.5-0.6l0.3-1.1c0.4,0.2,0.8,0.4,1.4,0.5
			c0.5,0.1,1.1,0.2,1.6,0.2c0.5,0,0.9-0.1,1.3-0.2c0.4-0.1,0.7-0.3,1-0.6c0.3-0.3,0.5-0.6,0.7-1.1c0.2-0.5,0.2-1,0.2-1.8V22z
			 M198.7,17.1c-0.3-0.5-0.8-1-1.3-1.3s-1.1-0.5-1.6-0.5c-0.4,0-0.8,0.1-1.2,0.2c-0.4,0.2-0.7,0.4-1,0.7c-0.3,0.3-0.5,0.7-0.6,1.2
			c-0.2,0.5-0.2,1-0.2,1.6c0,0.7,0.1,1.3,0.2,1.7c0.2,0.5,0.4,0.9,0.7,1.2s0.6,0.5,0.9,0.7c0.3,0.1,0.7,0.2,1.1,0.2
			c0.5,0,0.9-0.1,1.2-0.3s0.7-0.4,1-0.8s0.5-0.7,0.6-1.1c0.1-0.4,0.2-0.9,0.2-1.4V17.1z"/>
	</g>
</g>
</svg>
