<?xml version="1.0" encoding="utf-8"?>
<!-- Generator: Adobe Illustrator 25.0.0, SVG Export Plug-In . SVG Version: 6.00 Build 0)  -->
<svg version="1.1" id="Layer_1" xmlns="http://www.w3.org/2000/svg" xmlns:xlink="http://www.w3.org/1999/xlink" x="0px" y="0px"
	 viewBox="0 0 250 54" style="enable-background:new 0 0 250 54;" xml:space="preserve">
<style type="text/css">
	.st0{fill:#9EA77A;}
	.st1{fill:#F3F8F1;}
	.st2{font-family:'SukhumvitSet-Thin';}
	.st3{font-size:20px;}
	.st4{enable-background:new    ;}
	.st5{fill:none;}
</style>
<g id="Continue_to_shipping" transform="translate(10.5 8.5)">
	<g transform="matrix(1, 0, 0, 1, -10.5, -8.5)">
		<path id="Rectangle_2-2" class="st0" d="M23,0h204c12.7,0,23,10.3,23,23v8c0,12.7-10.3,23-23,23H23C10.3,54,0,43.7,0,31v-8
			C0,10.3,10.3,0,23,0z"/>
	</g>
	<text transform="matrix(1 0 0 1 25.86 23.5)" class="st1 st2 st3">Continue to Shipping</text>
	<g class="st4">
		<path class="st5" d="M33.2,10.7c-1.7,0-3,0.5-3.9,1.5c-0.9,1-1.4,2.5-1.4,4.5c0,1,0.1,1.8,0.4,2.6c0.2,0.7,0.6,1.4,1,1.9
			c0.5,0.5,1,0.9,1.6,1.2c0.6,0.3,1.4,0.4,2.2,0.4c0.6,0,1.2-0.1,1.7-0.2c0.5-0.1,0.9-0.3,1.3-0.5l0.2,0.8c-0.2,0.1-0.5,0.2-0.7,0.3
			c-0.2,0.1-0.5,0.2-0.7,0.2c-0.3,0.1-0.5,0.1-0.8,0.2c-0.3,0-0.6,0-1,0c-1.1,0-2-0.2-2.7-0.5c-0.8-0.3-1.4-0.8-1.9-1.4
			c-0.5-0.6-0.9-1.3-1.1-2.2c-0.2-0.8-0.4-1.8-0.4-2.8s0.1-2,0.4-2.8c0.3-0.8,0.7-1.6,1.2-2.2s1.2-1.1,2-1.4
			c0.8-0.3,1.7-0.5,2.7-0.5c0.6,0,1.2,0.1,1.7,0.2c0.5,0.1,1,0.3,1.3,0.5L36,11.3c-0.4-0.2-0.8-0.3-1.3-0.4
			C34.2,10.8,33.7,10.7,33.2,10.7z"/>
		<path class="st5" d="M42,13.7c0.7,0,1.4,0.1,1.9,0.4c0.5,0.2,1,0.6,1.4,1c0.4,0.4,0.6,1,0.8,1.6c0.2,0.6,0.3,1.3,0.3,2
			s-0.1,1.4-0.3,2c-0.2,0.6-0.5,1.1-0.8,1.6c-0.4,0.4-0.8,0.8-1.4,1c-0.5,0.2-1.2,0.4-1.9,0.4s-1.4-0.1-1.9-0.4
			c-0.5-0.2-1-0.6-1.4-1c-0.4-0.4-0.6-1-0.8-1.6c-0.2-0.6-0.3-1.3-0.3-2s0.1-1.4,0.3-2c0.2-0.6,0.5-1.1,0.8-1.6
			c0.4-0.4,0.8-0.8,1.4-1C40.6,13.8,41.3,13.7,42,13.7z M42,22.9c0.6,0,1.1-0.1,1.6-0.3c0.4-0.2,0.8-0.5,1.1-0.9
			c0.3-0.4,0.5-0.8,0.6-1.3c0.1-0.5,0.2-1.1,0.2-1.7s-0.1-1.2-0.2-1.7c-0.1-0.5-0.3-1-0.6-1.3c-0.3-0.4-0.6-0.7-1.1-0.9
			c-0.4-0.2-1-0.3-1.6-0.3c-0.6,0-1.1,0.1-1.5,0.3c-0.4,0.2-0.8,0.5-1.1,0.9c-0.3,0.4-0.5,0.8-0.6,1.3c-0.1,0.5-0.2,1.1-0.2,1.7
			s0.1,1.2,0.2,1.7c0.1,0.5,0.3,1,0.6,1.3c0.3,0.4,0.6,0.7,1.1,0.9C40.9,22.8,41.4,22.9,42,22.9z"/>
		<path class="st5" d="M49.9,23.5h-0.9v-9.7h0.7l0.2,1.9c0.2-0.3,0.4-0.5,0.7-0.8s0.5-0.5,0.9-0.7c0.3-0.2,0.7-0.3,1-0.5
			c0.4-0.1,0.8-0.2,1.2-0.2c1,0,1.8,0.3,2.4,0.9s0.8,1.5,0.8,2.7v6.2h-0.9v-6.2c0-0.9-0.2-1.6-0.6-2.1c-0.4-0.5-1-0.7-1.7-0.7
			c-0.4,0-0.8,0.1-1.1,0.2c-0.4,0.1-0.7,0.3-1,0.5c-0.3,0.2-0.6,0.5-0.9,0.7c-0.3,0.3-0.5,0.5-0.7,0.8V23.5z"/>
		<path class="st5" d="M61.4,21c0,0.7,0.1,1.2,0.3,1.4c0.2,0.3,0.6,0.4,1.1,0.4c0.3,0,0.6,0,0.9-0.1c0.3-0.1,0.5-0.2,0.7-0.4
			l0.3,0.7c-0.2,0.2-0.5,0.3-0.8,0.4c-0.3,0.1-0.7,0.2-1.1,0.2c-0.7,0-1.3-0.2-1.7-0.6c-0.4-0.4-0.6-1.1-0.6-2v-6.4h-1.7v-0.8h1.7
			l0.3-2.8h0.6v2.8h3.1v0.8h-3.1V21z"/>
		<path class="st5" d="M67.3,9.9c0.3,0,0.4,0.1,0.6,0.2s0.2,0.3,0.2,0.5S68,11,67.9,11.2s-0.3,0.2-0.6,0.2c-0.3,0-0.5-0.1-0.6-0.2
			c-0.1-0.1-0.2-0.3-0.2-0.5s0.1-0.4,0.2-0.5C66.8,9.9,67,9.9,67.3,9.9z M67.8,23.5h-0.9v-9.7h0.9V23.5z"/>
		<path class="st5" d="M72,23.5h-0.9v-9.7h0.7l0.2,1.9c0.2-0.3,0.4-0.5,0.7-0.8s0.5-0.5,0.9-0.7c0.3-0.2,0.7-0.3,1-0.5
			c0.4-0.1,0.8-0.2,1.2-0.2c1,0,1.8,0.3,2.4,0.9s0.8,1.5,0.8,2.7v6.2h-0.9v-6.2c0-0.9-0.2-1.6-0.6-2.1c-0.4-0.5-1-0.7-1.7-0.7
			c-0.4,0-0.8,0.1-1.1,0.2c-0.4,0.1-0.7,0.3-1,0.5c-0.3,0.2-0.6,0.5-0.9,0.7c-0.3,0.3-0.5,0.5-0.7,0.8V23.5z"/>
		<path class="st5" d="M88.9,13.8h0.9v9.7h-0.7l-0.2-1.9c-0.1,0.2-0.3,0.5-0.5,0.7c-0.2,0.2-0.5,0.5-0.8,0.7c-0.3,0.2-0.6,0.4-1,0.5
			c-0.4,0.1-0.8,0.2-1.2,0.2c-1,0-1.8-0.3-2.4-0.9c-0.6-0.6-0.8-1.5-0.8-2.7v-6.2h0.9V20c0,0.9,0.2,1.6,0.6,2.1
			c0.4,0.5,1,0.7,1.8,0.7c0.4,0,0.7-0.1,1.1-0.2c0.4-0.1,0.7-0.3,1-0.5c0.3-0.2,0.6-0.4,0.8-0.7c0.2-0.3,0.4-0.5,0.6-0.8V13.8z"/>
		<path class="st5" d="M93.4,19.1c0.1,1.1,0.4,2,1,2.7c0.6,0.7,1.5,1,2.7,1c0.5,0,1-0.1,1.4-0.2c0.4-0.1,0.8-0.3,1.1-0.5l0.2,0.7
			c-0.3,0.2-0.7,0.4-1.2,0.5s-1,0.2-1.6,0.2c-0.8,0-1.4-0.1-2-0.4c-0.6-0.2-1-0.6-1.4-1c-0.4-0.4-0.7-1-0.8-1.6
			c-0.2-0.6-0.3-1.3-0.3-2s0.1-1.4,0.3-2c0.2-0.6,0.5-1.1,0.8-1.6c0.4-0.4,0.8-0.8,1.4-1c0.5-0.2,1.2-0.4,1.9-0.4
			c1.2,0,2.1,0.3,2.7,1c0.6,0.7,0.9,1.6,0.9,2.8c0,0.3,0,0.5-0.1,0.8c0,0.3-0.1,0.6-0.2,0.8H93.4z M96.8,14.4
			c-0.6,0-1.1,0.1-1.5,0.3c-0.4,0.2-0.8,0.5-1,0.8c-0.3,0.3-0.5,0.8-0.6,1.3c-0.1,0.5-0.2,1-0.2,1.6h6.1c0-0.1,0-0.3,0.1-0.4
			c0-0.2,0-0.3,0-0.5c0-1.1-0.2-1.8-0.7-2.3C98.4,14.7,97.7,14.4,96.8,14.4z"/>
		<path class="st5" d="M109.9,21c0,0.7,0.1,1.2,0.3,1.4c0.2,0.3,0.6,0.4,1.1,0.4c0.3,0,0.6,0,0.9-0.1c0.3-0.1,0.5-0.2,0.7-0.4
			l0.3,0.7c-0.2,0.2-0.5,0.3-0.8,0.4c-0.3,0.1-0.7,0.2-1.1,0.2c-0.7,0-1.3-0.2-1.7-0.6c-0.4-0.4-0.6-1.1-0.6-2v-6.4h-1.7v-0.8h1.7
			l0.3-2.8h0.6v2.8h3.1v0.8h-3.1V21z"/>
		<path class="st5" d="M118.7,13.7c0.7,0,1.4,0.1,1.9,0.4c0.5,0.2,1,0.6,1.3,1c0.4,0.4,0.6,1,0.8,1.6c0.2,0.6,0.3,1.3,0.3,2
			s-0.1,1.4-0.3,2c-0.2,0.6-0.5,1.1-0.8,1.6c-0.4,0.4-0.8,0.8-1.3,1c-0.5,0.2-1.2,0.4-1.9,0.4s-1.4-0.1-1.9-0.4
			c-0.5-0.2-1-0.6-1.4-1c-0.4-0.4-0.6-1-0.8-1.6c-0.2-0.6-0.3-1.3-0.3-2s0.1-1.4,0.3-2c0.2-0.6,0.5-1.1,0.8-1.6
			c0.4-0.4,0.8-0.8,1.4-1C117.4,13.8,118,13.7,118.7,13.7z M118.7,22.9c0.6,0,1.1-0.1,1.5-0.3s0.8-0.5,1.1-0.9
			c0.3-0.4,0.5-0.8,0.6-1.3c0.1-0.5,0.2-1.1,0.2-1.7s-0.1-1.2-0.2-1.7c-0.1-0.5-0.3-1-0.6-1.3c-0.3-0.4-0.6-0.7-1.1-0.9
			s-1-0.3-1.5-0.3s-1.1,0.1-1.5,0.3c-0.4,0.2-0.8,0.5-1.1,0.9s-0.5,0.8-0.6,1.3c-0.1,0.5-0.2,1.1-0.2,1.7s0.1,1.2,0.2,1.7
			c0.1,0.5,0.3,1,0.6,1.3s0.6,0.7,1.1,0.9C117.6,22.8,118.1,22.9,118.7,22.9z"/>
		<path class="st5" d="M134.8,23.7c-0.9,0-1.7-0.1-2.3-0.2c-0.6-0.2-1.1-0.4-1.5-0.6l0.3-0.8c0.5,0.2,1,0.4,1.5,0.6
			c0.5,0.2,1.2,0.2,2,0.2c0.5,0,1-0.1,1.4-0.2s0.8-0.3,1.1-0.5c0.3-0.2,0.5-0.5,0.7-0.9c0.2-0.4,0.3-0.8,0.3-1.3
			c0-0.5-0.1-0.9-0.3-1.3c-0.2-0.3-0.4-0.6-0.8-0.8c-0.3-0.2-0.7-0.4-1.1-0.5c-0.4-0.1-0.8-0.3-1.3-0.4c-0.5-0.1-0.9-0.3-1.4-0.5
			c-0.5-0.2-0.9-0.4-1.2-0.7c-0.4-0.3-0.7-0.6-0.9-1.1c-0.2-0.4-0.3-0.9-0.3-1.5c0-0.5,0.1-0.9,0.2-1.3c0.1-0.4,0.4-0.8,0.7-1.1
			c0.3-0.3,0.7-0.5,1.3-0.7c0.5-0.2,1.1-0.3,1.8-0.3c0.7,0,1.3,0.1,1.9,0.2c0.6,0.2,1,0.3,1.4,0.5l-0.3,0.7
			c-0.4-0.2-0.9-0.4-1.4-0.5s-1.1-0.2-1.6-0.2c-1.1,0-1.9,0.2-2.4,0.7c-0.5,0.5-0.7,1.1-0.7,1.9c0,0.4,0.1,0.8,0.2,1.1
			c0.2,0.3,0.4,0.6,0.6,0.8s0.6,0.4,1,0.6s0.8,0.3,1.3,0.5c0.5,0.2,1,0.4,1.5,0.5c0.5,0.2,0.9,0.4,1.3,0.7c0.4,0.3,0.7,0.6,0.9,1
			c0.2,0.4,0.3,0.9,0.3,1.5c0,0.6-0.1,1.1-0.3,1.6c-0.2,0.5-0.5,0.8-0.9,1.2s-0.8,0.5-1.4,0.7S135.4,23.7,134.8,23.7z"/>
		<path class="st5" d="M142.6,23.5h-0.9V10h0.9v5.7c0.2-0.3,0.4-0.5,0.7-0.8s0.6-0.5,0.9-0.7c0.3-0.2,0.7-0.3,1.1-0.5
			c0.4-0.1,0.8-0.2,1.2-0.2c1,0,1.8,0.3,2.4,0.9c0.6,0.6,0.8,1.5,0.8,2.7v6.2h-0.9v-6.2c0-0.9-0.2-1.6-0.6-2.1
			c-0.4-0.5-1-0.7-1.7-0.7c-0.4,0-0.8,0.1-1.1,0.2c-0.4,0.1-0.7,0.3-1,0.5c-0.3,0.2-0.6,0.5-0.9,0.7s-0.5,0.5-0.7,0.8V23.5z"/>
		<path class="st5" d="M153.4,9.9c0.3,0,0.4,0.1,0.6,0.2c0.1,0.1,0.2,0.3,0.2,0.5s-0.1,0.4-0.2,0.5c-0.1,0.1-0.3,0.2-0.6,0.2
			c-0.3,0-0.5-0.1-0.6-0.2c-0.1-0.1-0.2-0.3-0.2-0.5s0.1-0.4,0.2-0.5C152.9,9.9,153.1,9.9,153.4,9.9z M153.9,23.5h-0.9v-9.7h0.9
			V23.5z"/>
		<path class="st5" d="M161.5,23.7c-0.8,0-1.5-0.2-2-0.6c-0.6-0.4-1-0.9-1.4-1.5v5.7h-0.9V13.8h0.7l0.2,1.9c0.2-0.2,0.4-0.5,0.6-0.7
			c0.2-0.2,0.5-0.5,0.8-0.7c0.3-0.2,0.6-0.4,1-0.5c0.4-0.1,0.8-0.2,1.2-0.2c0.5,0,1,0.1,1.5,0.3s0.9,0.5,1.2,0.9
			c0.3,0.4,0.6,0.9,0.8,1.5s0.3,1.3,0.3,2.2c0,0.9-0.1,1.7-0.3,2.3c-0.2,0.6-0.5,1.2-0.8,1.6c-0.4,0.4-0.8,0.7-1.3,0.9
			C162.6,23.6,162.1,23.7,161.5,23.7z M161.5,22.8c0.4,0,0.8-0.1,1.2-0.2s0.7-0.4,1-0.7c0.3-0.3,0.5-0.8,0.7-1.3
			c0.2-0.5,0.3-1.2,0.3-2c0-0.7-0.1-1.4-0.2-1.9c-0.2-0.5-0.4-0.9-0.6-1.3c-0.3-0.3-0.6-0.6-0.9-0.7s-0.7-0.2-1.1-0.2
			c-0.7,0-1.4,0.2-2,0.6c-0.6,0.4-1.1,0.9-1.6,1.7v2.5c0,0.4,0.1,0.9,0.2,1.3c0.1,0.4,0.3,0.8,0.6,1.2s0.6,0.6,1,0.8
			S160.9,22.8,161.5,22.8z"/>
		<path class="st5" d="M172.5,23.7c-0.8,0-1.5-0.2-2.1-0.6c-0.6-0.4-1-0.9-1.4-1.5v5.7h-0.9V13.8h0.7l0.2,1.9
			c0.2-0.2,0.4-0.5,0.6-0.7c0.2-0.2,0.5-0.5,0.8-0.7c0.3-0.2,0.6-0.4,1-0.5c0.4-0.1,0.8-0.2,1.2-0.2c0.5,0,1,0.1,1.5,0.3
			s0.9,0.5,1.2,0.9c0.3,0.4,0.6,0.9,0.8,1.5c0.2,0.6,0.3,1.3,0.3,2.2c0,0.9-0.1,1.7-0.3,2.3c-0.2,0.6-0.5,1.2-0.8,1.6
			c-0.4,0.4-0.8,0.7-1.3,0.9S173.1,23.7,172.5,23.7z M172.5,22.8c0.4,0,0.8-0.1,1.2-0.2s0.7-0.4,1-0.7c0.3-0.3,0.5-0.8,0.7-1.3
			c0.2-0.5,0.3-1.2,0.3-2c0-0.7-0.1-1.4-0.2-1.9c-0.2-0.5-0.4-0.9-0.6-1.3c-0.3-0.3-0.6-0.6-0.9-0.7c-0.4-0.2-0.7-0.2-1.1-0.2
			c-0.7,0-1.4,0.2-2,0.6c-0.6,0.4-1.1,0.9-1.6,1.7v2.5c0,0.4,0.1,0.9,0.2,1.3c0.1,0.4,0.4,0.8,0.6,1.2c0.3,0.3,0.6,0.6,1,0.8
			S171.9,22.8,172.5,22.8z"/>
		<path class="st5" d="M179.7,9.9c0.3,0,0.5,0.1,0.6,0.2s0.2,0.3,0.2,0.5s-0.1,0.4-0.2,0.5s-0.3,0.2-0.6,0.2c-0.3,0-0.5-0.1-0.6-0.2
			c-0.1-0.1-0.2-0.3-0.2-0.5s0.1-0.4,0.2-0.5C179.2,9.9,179.4,9.9,179.7,9.9z M180.1,23.5h-0.9v-9.7h0.9V23.5z"/>
		<path class="st5" d="M184.4,23.5h-0.9v-9.7h0.7l0.2,1.9c0.2-0.3,0.4-0.5,0.7-0.8s0.5-0.5,0.9-0.7s0.7-0.3,1-0.5
			c0.4-0.1,0.8-0.2,1.2-0.2c1,0,1.8,0.3,2.4,0.9c0.6,0.6,0.8,1.5,0.8,2.7v6.2h-0.9v-6.2c0-0.9-0.2-1.6-0.6-2.1
			c-0.4-0.5-1-0.7-1.7-0.7c-0.4,0-0.8,0.1-1.1,0.2c-0.4,0.1-0.7,0.3-1,0.5s-0.6,0.5-0.9,0.7c-0.3,0.3-0.5,0.5-0.7,0.8V23.5z"/>
		<path class="st5" d="M201.4,21.6c-0.3,0.6-0.8,1.1-1.3,1.5c-0.6,0.4-1.2,0.6-2,0.6c-0.6,0-1.1-0.1-1.6-0.3s-0.9-0.5-1.3-0.9
			c-0.4-0.4-0.7-0.9-0.9-1.6c-0.2-0.6-0.3-1.4-0.3-2.3c0-0.8,0.1-1.5,0.3-2.1c0.2-0.6,0.5-1.1,0.9-1.6c0.4-0.4,0.8-0.8,1.3-1
			c0.5-0.2,1-0.3,1.5-0.3c0.4,0,0.8,0.1,1.2,0.2c0.4,0.1,0.7,0.3,1,0.5c0.3,0.2,0.5,0.4,0.7,0.7c0.2,0.2,0.4,0.5,0.5,0.7l0.2-1.9
			h0.7v9.2c0,1.5-0.4,2.6-1.1,3.3c-0.7,0.7-1.7,1.1-3,1.1c-0.7,0-1.3-0.1-1.9-0.3c-0.6-0.2-1-0.4-1.4-0.6l0.2-0.7
			c0.4,0.2,0.8,0.4,1.4,0.5c0.5,0.1,1.1,0.2,1.7,0.2c0.5,0,0.9-0.1,1.3-0.2c0.4-0.1,0.7-0.3,1-0.6c0.3-0.3,0.5-0.7,0.6-1.1
			c0.2-0.5,0.2-1,0.2-1.7V21.6z M198.1,22.8c0.5,0,1-0.1,1.4-0.3c0.4-0.2,0.7-0.5,1-0.8s0.5-0.7,0.6-1.2c0.1-0.4,0.2-0.9,0.2-1.3
			v-2.5c-0.4-0.7-0.9-1.2-1.4-1.6c-0.6-0.4-1.2-0.6-1.9-0.6c-0.4,0-0.8,0.1-1.2,0.2s-0.7,0.4-1,0.8s-0.5,0.8-0.7,1.3
			c-0.2,0.5-0.3,1.1-0.3,1.8c0,0.8,0.1,1.4,0.3,2c0.2,0.5,0.4,1,0.7,1.3c0.3,0.3,0.6,0.6,1,0.7C197.3,22.8,197.7,22.8,198.1,22.8z"
			/>
	</g>
</g>
</svg>
