<?xml version="1.0" encoding="utf-8"?>
<!-- Generator: Adobe Illustrator 25.0.0, SVG Export Plug-In . SVG Version: 6.00 Build 0)  -->
<svg version="1.1" id="Layer_1" xmlns="http://www.w3.org/2000/svg" xmlns:xlink="http://www.w3.org/1999/xlink" x="0px" y="0px"
	 viewBox="0 0 250 54" style="enable-background:new 0 0 250 54;" xml:space="preserve">
<style type="text/css">
	.st0{fill:#9EA77A;}
	.st1{fill:#FFFFFF;}
</style>
<g id="Continue_to_shipping" transform="translate(10.5 8.5)">
	<g transform="matrix(1, 0, 0, 1, -10.5, -8.5)">
		<path id="Rectangle_2-2" class="st0" d="M23,0h204c12.7,0,23,10.3,23,23v8c0,12.7-10.3,23-23,23H23C10.3,54,0,43.7,0,31v-8
			C0,10.3,10.3,0,23,0z"/>
	</g>
	<g>
		<path class="st1" d="M30.9,10.5c-1.5,0-2.6,0.5-3.5,1.4c-0.8,0.9-1.2,2.3-1.2,4c0,1.7,0.4,3,1.2,4c0.8,0.9,2,1.4,3.5,1.4
			c0.5,0,1-0.1,1.5-0.2s1-0.3,1.4-0.5l0.4,1.5c-0.5,0.2-1,0.4-1.6,0.5c-0.6,0.1-1.2,0.2-1.8,0.2c-1.1,0-2.1-0.2-2.9-0.5
			s-1.5-0.8-2-1.4c-0.5-0.6-0.9-1.3-1.2-2.2s-0.4-1.8-0.4-2.8c0-1,0.1-1.9,0.4-2.8c0.3-0.9,0.7-1.6,1.2-2.2c0.5-0.6,1.2-1.1,2-1.4
			s1.7-0.5,2.7-0.5c0.7,0,1.3,0.1,1.8,0.2c0.5,0.1,1,0.3,1.5,0.5L33.7,11C33,10.7,32,10.5,30.9,10.5z"/>
		<path class="st1" d="M35.5,17.8c0-0.7,0.1-1.4,0.3-2s0.5-1.1,0.8-1.6c0.4-0.4,0.8-0.8,1.4-1.1c0.6-0.3,1.3-0.4,2-0.4
			c0.8,0,1.5,0.1,2,0.4c0.6,0.3,1,0.6,1.4,1.1c0.4,0.4,0.7,1,0.8,1.6s0.3,1.3,0.3,2c0,0.7-0.1,1.4-0.3,2s-0.5,1.1-0.8,1.6
			c-0.4,0.5-0.8,0.8-1.4,1.1c-0.6,0.3-1.3,0.4-2,0.4c-0.8,0-1.5-0.1-2-0.4c-0.6-0.3-1-0.6-1.4-1.1s-0.7-1-0.8-1.6
			S35.5,18.5,35.5,17.8z M37.2,17.8c0,0.5,0.1,1,0.2,1.5c0.1,0.5,0.3,0.8,0.5,1.2c0.2,0.3,0.5,0.6,0.9,0.8s0.8,0.3,1.3,0.3
			s0.9-0.1,1.3-0.3c0.4-0.2,0.7-0.4,0.9-0.8c0.2-0.3,0.4-0.7,0.5-1.2c0.1-0.5,0.2-0.9,0.2-1.5c0-0.5-0.1-1-0.2-1.5
			c-0.1-0.4-0.3-0.8-0.5-1.2c-0.2-0.3-0.5-0.6-0.9-0.8c-0.4-0.2-0.8-0.3-1.3-0.3s-0.9,0.1-1.3,0.3c-0.4,0.2-0.7,0.4-0.9,0.8
			c-0.2,0.3-0.4,0.7-0.5,1.2C37.2,16.8,37.2,17.3,37.2,17.8z"/>
		<path class="st1" d="M48.6,22.6h-1.7V13h1.4l0.3,1.4c0.1-0.2,0.3-0.4,0.5-0.5c0.2-0.2,0.5-0.4,0.7-0.5c0.3-0.2,0.6-0.3,1-0.4
			c0.4-0.1,0.7-0.2,1.1-0.2c1,0,1.9,0.3,2.4,1c0.6,0.7,0.9,1.6,0.9,2.8v6h-1.6v-6c0-0.7-0.2-1.3-0.5-1.7c-0.3-0.4-0.8-0.6-1.5-0.6
			c-0.6,0-1.2,0.1-1.7,0.4c-0.5,0.3-0.9,0.7-1.3,1.1V22.6z"/>
		<path class="st1" d="M60.2,19.9c0,0.5,0.1,0.9,0.2,1.1c0.1,0.3,0.5,0.4,1,0.4c0.3,0,0.6,0,0.8-0.1s0.5-0.2,0.7-0.3l0.4,1.2
			c-0.3,0.2-0.6,0.3-0.9,0.4s-0.8,0.1-1.3,0.1c-0.9,0-1.5-0.2-1.9-0.7c-0.4-0.5-0.6-1.2-0.6-2.2v-5.6h-1.5V13h1.5l0.4-2.8h1.2V13h3
			v1.4h-3V19.9z"/>
		<path class="st1" d="M65.1,10c0-0.3,0.1-0.6,0.3-0.8c0.2-0.2,0.5-0.3,0.8-0.3c0.4,0,0.6,0.1,0.8,0.3c0.2,0.2,0.3,0.5,0.3,0.8
			c0,0.3-0.1,0.6-0.3,0.8c-0.2,0.2-0.5,0.3-0.8,0.3c-0.4,0-0.6-0.1-0.8-0.3C65.2,10.6,65.1,10.3,65.1,10z M67,22.6h-1.7V13H67V22.6z
			"/>
		<path class="st1" d="M71.8,22.6h-1.7V13h1.4l0.3,1.4c0.1-0.2,0.3-0.4,0.5-0.5c0.2-0.2,0.5-0.4,0.7-0.5c0.3-0.2,0.6-0.3,1-0.4
			c0.4-0.1,0.7-0.2,1.1-0.2c1,0,1.9,0.3,2.4,1c0.6,0.7,0.9,1.6,0.9,2.8v6h-1.6v-6c0-0.7-0.2-1.3-0.5-1.7c-0.3-0.4-0.8-0.6-1.5-0.6
			c-0.6,0-1.2,0.1-1.7,0.4c-0.5,0.3-0.9,0.7-1.3,1.1V22.6z"/>
		<path class="st1" d="M87.9,13h1.7v9.7h-1.4L87.9,21c-0.1,0.2-0.3,0.4-0.5,0.6s-0.4,0.4-0.7,0.6c-0.3,0.2-0.6,0.3-1,0.4
			c-0.4,0.1-0.8,0.2-1.2,0.2c-0.5,0-0.9-0.1-1.3-0.2c-0.4-0.1-0.7-0.4-1-0.7s-0.5-0.7-0.6-1.2c-0.2-0.5-0.2-1.1-0.2-1.8v-6H83v6
			c0,0.7,0.2,1.3,0.5,1.7s0.8,0.6,1.3,0.6c0.7,0,1.3-0.2,1.8-0.6s0.9-0.8,1.3-1.3V13z"/>
		<path class="st1" d="M93.5,18.5c0.1,0.9,0.4,1.7,0.9,2.2c0.5,0.5,1.3,0.8,2.2,0.8c0.4,0,0.8,0,1.3-0.1c0.5-0.1,0.9-0.2,1.3-0.4
			l0.4,1.2c-0.8,0.4-1.9,0.6-3.1,0.6c-1.6,0-2.7-0.5-3.5-1.4c-0.8-0.9-1.2-2.1-1.2-3.7c0-0.7,0.1-1.4,0.2-2s0.4-1.1,0.8-1.6
			c0.4-0.4,0.8-0.8,1.4-1.1c0.6-0.3,1.2-0.4,2-0.4c1.3,0,2.3,0.4,2.9,1.1c0.6,0.7,1,1.7,1,3c0,0.3,0,0.7,0,0.9
			c0,0.3-0.1,0.5-0.2,0.8H93.5z M96.3,14c-0.5,0-0.9,0.1-1.2,0.2c-0.3,0.2-0.6,0.4-0.8,0.7c-0.2,0.3-0.4,0.6-0.5,1s-0.2,0.8-0.2,1.3
			h5.1v-0.5c0-0.9-0.2-1.6-0.5-2.1C97.7,14.3,97.1,14,96.3,14z"/>
		<path class="st1" d="M109.6,19.9c0,0.5,0.1,0.9,0.2,1.1c0.1,0.3,0.5,0.4,1,0.4c0.3,0,0.6,0,0.8-0.1s0.5-0.2,0.7-0.3l0.4,1.2
			c-0.3,0.2-0.6,0.3-0.9,0.4s-0.8,0.1-1.3,0.1c-0.9,0-1.5-0.2-1.9-0.7c-0.4-0.5-0.6-1.2-0.6-2.2v-5.6h-1.5V13h1.5l0.4-2.8h1.2V13h3
			v1.4h-3V19.9z"/>
		<path class="st1" d="M113.8,17.8c0-0.7,0.1-1.4,0.3-2s0.5-1.1,0.8-1.6c0.4-0.4,0.8-0.8,1.4-1.1c0.6-0.3,1.3-0.4,2-0.4
			c0.8,0,1.5,0.1,2,0.4c0.6,0.3,1,0.6,1.4,1.1c0.4,0.4,0.7,1,0.8,1.6s0.3,1.3,0.3,2c0,0.7-0.1,1.4-0.3,2s-0.5,1.1-0.8,1.6
			c-0.4,0.5-0.8,0.8-1.4,1.1c-0.6,0.3-1.3,0.4-2,0.4c-0.8,0-1.5-0.1-2-0.4c-0.6-0.3-1-0.6-1.4-1.1s-0.7-1-0.8-1.6
			S113.8,18.5,113.8,17.8z M115.5,17.8c0,0.5,0.1,1,0.2,1.5c0.1,0.5,0.3,0.8,0.5,1.2c0.2,0.3,0.5,0.6,0.9,0.8s0.8,0.3,1.3,0.3
			s0.9-0.1,1.3-0.3c0.4-0.2,0.7-0.4,0.9-0.8c0.2-0.3,0.4-0.7,0.5-1.2c0.1-0.5,0.2-0.9,0.2-1.5c0-0.5-0.1-1-0.2-1.5
			c-0.1-0.4-0.3-0.8-0.5-1.2c-0.2-0.3-0.5-0.6-0.9-0.8c-0.4-0.2-0.8-0.3-1.3-0.3s-0.9,0.1-1.3,0.3c-0.4,0.2-0.7,0.4-0.9,0.8
			c-0.2,0.3-0.4,0.7-0.5,1.2C115.5,16.8,115.5,17.3,115.5,17.8z"/>
		<path class="st1" d="M131.7,13l0.3,1.4c0.1-0.2,0.3-0.4,0.5-0.5c0.2-0.2,0.5-0.4,0.7-0.5c0.3-0.2,0.6-0.3,0.9-0.4
			c0.3-0.1,0.7-0.2,1.1-0.2c0.7,0,1.2,0.1,1.7,0.4c0.5,0.3,0.9,0.6,1.2,1.1c0.3,0.5,0.5,1,0.7,1.6s0.2,1.2,0.2,1.8
			c0,1.7-0.4,3-1.1,3.9s-1.7,1.3-2.9,1.3c-0.3,0-0.7,0-1-0.2c-0.3-0.1-0.6-0.2-0.9-0.4s-0.5-0.4-0.7-0.6s-0.4-0.5-0.5-0.7v5.5h-1.7
			V13H131.7z M131.9,17.9c0,0.5,0.1,1,0.2,1.4s0.4,0.8,0.6,1.1s0.6,0.5,0.9,0.7s0.7,0.2,1,0.2c0.3,0,0.7-0.1,1-0.2s0.6-0.3,0.8-0.6
			s0.4-0.7,0.6-1.1c0.1-0.5,0.2-1,0.2-1.7c0-1.1-0.2-1.9-0.7-2.5c-0.4-0.6-1-0.8-1.8-0.8c-0.6,0-1.1,0.1-1.7,0.4
			c-0.5,0.3-1,0.7-1.3,1.1V17.9z"/>
		<path class="st1" d="M146.9,16.3c0-0.8-0.2-1.3-0.6-1.7c-0.4-0.3-0.9-0.5-1.6-0.5c-0.6,0-1.1,0.1-1.6,0.2c-0.5,0.1-1,0.3-1.4,0.5
			l-0.4-1.2c0.4-0.2,0.8-0.4,1.4-0.6c0.6-0.2,1.3-0.3,2-0.3c1.3,0,2.2,0.3,2.8,1c0.6,0.6,0.9,1.5,0.9,2.6v6.3h-1.3l-0.3-1.6
			c-0.1,0.2-0.3,0.5-0.5,0.7c-0.2,0.2-0.4,0.4-0.6,0.6c-0.3,0.2-0.6,0.3-0.9,0.4s-0.8,0.2-1.3,0.2c-0.4,0-0.8-0.1-1.2-0.2
			c-0.4-0.1-0.7-0.3-1-0.6c-0.3-0.2-0.5-0.5-0.6-0.9c-0.2-0.4-0.2-0.8-0.2-1.3c0-1.1,0.4-1.9,1.1-2.5c0.8-0.5,1.8-0.8,3.1-0.8h2
			V16.3z M146.9,17.9h-2c-0.8,0-1.5,0.2-1.9,0.5c-0.4,0.4-0.7,0.9-0.7,1.5c0,0.5,0.2,0.9,0.5,1.2c0.3,0.3,0.7,0.4,1.2,0.4
			c0.4,0,0.8-0.1,1.2-0.2c0.4-0.2,0.7-0.4,0.9-0.7s0.5-0.6,0.6-0.9c0.1-0.3,0.2-0.7,0.2-1V17.9z"/>
		<path class="st1" d="M157.8,20.8c-0.1,0.2-0.3,0.4-0.5,0.6c-0.2,0.2-0.4,0.4-0.7,0.6c-0.3,0.2-0.6,0.3-1,0.4
			c-0.4,0.1-0.8,0.2-1.2,0.2c-0.5,0-0.9-0.1-1.3-0.2c-0.4-0.1-0.7-0.4-1-0.7c-0.3-0.3-0.5-0.7-0.6-1.2c-0.2-0.5-0.2-1.1-0.2-1.8V13
			h1.6v5.8c0,0.7,0.2,1.3,0.5,1.7s0.7,0.6,1.3,0.6c0.7,0,1.3-0.2,1.8-0.6c0.5-0.4,0.9-0.8,1.2-1.3V13h1.7v8.8c0,1.6-0.4,2.9-1.2,3.6
			c-0.8,0.8-1.9,1.2-3.3,1.2c-0.6,0-1.2-0.1-1.8-0.3c-0.6-0.2-1.1-0.4-1.5-0.6l0.4-1.3c0.4,0.2,0.8,0.4,1.3,0.5s1,0.2,1.5,0.2
			c0.5,0,0.9-0.1,1.2-0.2c0.4-0.1,0.7-0.3,0.9-0.5c0.2-0.3,0.4-0.6,0.6-1c0.1-0.4,0.2-1,0.2-1.6V20.8z"/>
		<path class="st1" d="M164.2,22.6h-1.7V13h1.4l0.3,1.4c0.1-0.2,0.3-0.4,0.4-0.5c0.2-0.2,0.4-0.4,0.6-0.5c0.2-0.2,0.5-0.3,0.8-0.4
			c0.3-0.1,0.7-0.2,1.1-0.2c0.6,0,1.2,0.2,1.6,0.5s0.7,0.8,0.9,1.4c0.3-0.5,0.7-0.9,1.3-1.3s1.2-0.5,1.9-0.5c1,0,1.7,0.3,2.1,1
			c0.5,0.7,0.7,1.5,0.7,2.5v6.3h-1.6v-6.3c0-0.6-0.1-1.1-0.4-1.5c-0.2-0.4-0.6-0.6-1.2-0.6c-0.3,0-0.6,0-0.8,0.1
			c-0.3,0.1-0.5,0.2-0.7,0.4c-0.2,0.2-0.4,0.4-0.6,0.6c-0.2,0.2-0.3,0.4-0.4,0.7v6.6h-1.6v-6.3c0-0.6-0.1-1.1-0.4-1.5
			c-0.2-0.4-0.6-0.6-1.1-0.6c-0.6,0-1.1,0.2-1.5,0.5c-0.4,0.3-0.8,0.7-1,1.2V22.6z"/>
		<path class="st1" d="M179.5,18.5c0.1,0.9,0.4,1.7,0.9,2.2c0.5,0.5,1.3,0.8,2.2,0.8c0.4,0,0.8,0,1.3-0.1c0.5-0.1,0.9-0.2,1.3-0.4
			l0.4,1.2c-0.8,0.4-1.9,0.6-3.1,0.6c-1.6,0-2.7-0.5-3.5-1.4c-0.8-0.9-1.2-2.1-1.2-3.7c0-0.7,0.1-1.4,0.2-2s0.4-1.1,0.8-1.6
			c0.4-0.4,0.8-0.8,1.4-1.1c0.6-0.3,1.2-0.4,2-0.4c1.3,0,2.3,0.4,2.9,1.1c0.6,0.7,1,1.7,1,3c0,0.3,0,0.7,0,0.9
			c0,0.3-0.1,0.5-0.2,0.8H179.5z M182.2,14c-0.5,0-0.9,0.1-1.2,0.2c-0.3,0.2-0.6,0.4-0.8,0.7c-0.2,0.3-0.4,0.6-0.5,1
			s-0.2,0.8-0.2,1.3h5.1v-0.5c0-0.9-0.2-1.6-0.5-2.1C183.7,14.3,183.1,14,182.2,14z"/>
		<path class="st1" d="M190.2,22.6h-1.7V13h1.4l0.3,1.4c0.1-0.2,0.3-0.4,0.5-0.5c0.2-0.2,0.5-0.4,0.7-0.5c0.3-0.2,0.6-0.3,1-0.4
			c0.4-0.1,0.7-0.2,1.1-0.2c1,0,1.9,0.3,2.4,1c0.6,0.7,0.9,1.6,0.9,2.8v6h-1.6v-6c0-0.7-0.2-1.3-0.5-1.7c-0.3-0.4-0.8-0.6-1.5-0.6
			c-0.6,0-1.2,0.1-1.7,0.4c-0.5,0.3-0.9,0.7-1.3,1.1V22.6z"/>
		<path class="st1" d="M201.8,19.9c0,0.5,0.1,0.9,0.2,1.1c0.1,0.3,0.5,0.4,1,0.4c0.3,0,0.6,0,0.8-0.1s0.5-0.2,0.7-0.3l0.4,1.2
			c-0.3,0.2-0.6,0.3-0.9,0.4s-0.8,0.1-1.3,0.1c-0.9,0-1.5-0.2-1.9-0.7c-0.4-0.5-0.6-1.2-0.6-2.2v-5.6h-1.5V13h1.5l0.4-2.8h1.2V13h3
			v1.4h-3V19.9z"/>
	</g>
</g>
</svg>
