<?xml version="1.0" encoding="utf-8"?>
<!-- Generator: Adobe Illustrator 25.0.0, SVG Export Plug-In . SVG Version: 6.00 Build 0)  -->
<svg version="1.1" id="Layer_1" xmlns="http://www.w3.org/2000/svg" xmlns:xlink="http://www.w3.org/1999/xlink" x="0px" y="0px"
	 viewBox="0 0 498 73" style="enable-background:new 0 0 498 73;" xml:space="preserve">
<style type="text/css">
	.st0{fill:#9EA77A;}
	.st1{enable-background:new    ;}
	.st2{fill:#F3F8F1;}
</style>
<path id="Rectangle" class="st0" d="M24,0h450c13.3,0,24,10.7,24,24v25c0,13.3-10.7,24-24,24H24C10.7,73,0,62.3,0,49V24
	C0,10.7,10.7,0,24,0z"/>
<g class="st1">
	<path class="st2" d="M214.5,26.1h1.3v17.7h9.4V45h-10.7V26.1z"/>
	<path class="st2" d="M234.9,45.2c-1.3,0-2.5-0.2-3.5-0.7s-1.8-1.2-2.5-2s-1.2-1.9-1.5-3.1c-0.3-1.2-0.5-2.5-0.5-3.8
		c0-1.4,0.2-2.7,0.5-3.9c0.3-1.2,0.8-2.2,1.5-3.1s1.5-1.5,2.5-2s2.2-0.7,3.5-0.7c1.3,0,2.5,0.2,3.5,0.7c1,0.5,1.8,1.2,2.5,2
		s1.2,1.9,1.5,3.1c0.3,1.2,0.5,2.5,0.5,3.9c0,1.4-0.2,2.7-0.5,3.8c-0.3,1.2-0.8,2.2-1.5,3.1s-1.5,1.5-2.5,2
		C237.4,45,236.2,45.2,234.9,45.2z M234.9,44.1c1.1,0,2.1-0.2,3-0.6c0.8-0.4,1.5-1,2.1-1.8c0.6-0.8,1-1.7,1.2-2.7
		c0.3-1,0.4-2.2,0.4-3.4c0-1.2-0.1-2.4-0.4-3.4c-0.3-1-0.7-1.9-1.2-2.7c-0.6-0.8-1.3-1.3-2.1-1.8c-0.8-0.4-1.8-0.6-3-0.6
		c-1.1,0-2.1,0.2-3,0.6c-0.8,0.4-1.5,1-2.1,1.8c-0.6,0.8-1,1.7-1.2,2.7c-0.3,1-0.4,2.2-0.4,3.4c0,1.2,0.1,2.4,0.4,3.4
		c0.3,1,0.7,1.9,1.2,2.7c0.6,0.8,1.3,1.3,2.1,1.8C232.7,43.9,233.7,44.1,234.9,44.1z"/>
	<path class="st2" d="M254.4,25.9c1.1,0,2.1,0.1,2.9,0.3c0.8,0.2,1.5,0.5,2,0.7l-0.3,1.1c-0.5-0.3-1.2-0.5-1.9-0.7
		c-0.8-0.2-1.6-0.3-2.5-0.3c-1.1,0-2.1,0.2-3.1,0.5c-0.9,0.3-1.7,0.9-2.4,1.6c-0.7,0.7-1.2,1.7-1.5,2.8c-0.4,1.1-0.5,2.5-0.5,4
		c0,1.2,0.1,2.3,0.4,3.2c0.3,1,0.7,1.8,1.3,2.5s1.2,1.3,2,1.7c0.8,0.4,1.7,0.6,2.7,0.6c0.7,0,1.3-0.1,2-0.4c0.6-0.3,1.2-0.7,1.7-1.2
		c0.5-0.5,0.9-1.1,1.2-1.8s0.4-1.4,0.4-2.3V36h-4V35h5.3v10h-0.9l-0.3-3.1c-0.5,0.9-1.2,1.7-2.1,2.4c-0.9,0.6-2,1-3.3,1
		c-1.2,0-2.2-0.2-3.2-0.7c-0.9-0.5-1.7-1.1-2.4-1.9c-0.7-0.8-1.2-1.8-1.5-2.9c-0.3-1.1-0.5-2.4-0.5-3.7c0-1.7,0.2-3.2,0.6-4.4
		c0.4-1.3,1-2.3,1.8-3.2s1.7-1.5,2.7-1.9S253.1,25.9,254.4,25.9z"/>
	<path class="st2" d="M266,45h-1.3V26.1h1.3V45z"/>
	<path class="st2" d="M281.6,40.6c0.3,0.5,0.6,1,0.9,1.5s0.5,0.9,0.7,1.2h0.1c-0.1-0.5-0.1-1.1-0.2-1.7c0-0.6,0-1.2,0-1.9V26.1h1.3
		V45H283l-9.2-14.4c-0.3-0.5-0.6-1-0.9-1.5c-0.3-0.4-0.5-0.9-0.7-1.2h-0.1c0.1,0.5,0.1,1.1,0.2,1.7c0,0.6,0,1.2,0,1.9V45h-1.3V26.1
		h1.4L281.6,40.6z"/>
</g>
</svg>
