<?xml version="1.0" encoding="utf-8"?>
<!-- Generator: Adobe Illustrator 24.3.0, SVG Export Plug-In . SVG Version: 6.00 Build 0)  -->
<svg version="1.1" id="Layer_1" xmlns="http://www.w3.org/2000/svg" xmlns:xlink="http://www.w3.org/1999/xlink" x="0px" y="0px"
	 viewBox="0 0 100.7 165" style="enable-background:new 0 0 100.7 165;" xml:space="preserve">
<style type="text/css">
	.st0{enable-background:new    ;}
	.st1{fill:#707070;}
	.st2{fill:none;stroke:#707070;stroke-width:8;stroke-miterlimit:10;}
	.st3{fill:none;stroke:#000000;stroke-width:2;stroke-miterlimit:10;}
</style>
<g class="st0">
	<path class="st1" d="M53,47.5h11.3c8.2,0,12.2-5.9,12.2-11.7c0-5.8-4-11.6-12.2-11.6H49.4v57.4h-9.6V14.4h24.5
		c14.6,0,21.9,10.8,21.9,21.4c0,9.5-5.9,18.5-17.4,20.5l21.2,25.2H77.5L53,52.1V47.5z"/>
</g>
<g class="st0">
	<path class="st1" d="M63.9,76.2c22,0,33,16.8,33,33.6s-11,33.5-33,33.5H39.8V76.2H63.9z M63.9,133.6c15.6,0,23.4-11.9,23.4-23.8
		c0-11.9-7.9-23.9-23.4-23.9H49.5v47.7H63.9z"/>
</g>
<path class="st2" d="M31.6,49.5c0,0-68,89.7,9.6,89.7"/>
<path class="st3" d="M11.3,94.2"/>
</svg>
