<?xml version="1.0" encoding="utf-8"?>
<!-- Generator: Adobe Illustrator 25.0.0, SVG Export Plug-In . SVG Version: 6.00 Build 0)  -->
<svg version="1.1" id="Layer_1" xmlns="http://www.w3.org/2000/svg" xmlns:xlink="http://www.w3.org/1999/xlink" x="0px" y="0px"
	 viewBox="0 0 27.2 27.2" style="enable-background:new 0 0 27.2 27.2;" xml:space="preserve">
<style type="text/css">
	.st0{fill:#FFFFFF;}
	.st1{fill:#CE301B;}
</style>
<g>
	<path class="st0" d="M13.6,26.4c-7.1,0-12.8-5.7-12.8-12.8S6.6,0.8,13.6,0.8s12.8,5.7,12.8,12.8S20.7,26.4,13.6,26.4z"/>
	<path class="st1" d="M13.6,1.7c6.6,0,12,5.4,12,12s-5.4,12-12,12s-12-5.4-12-12S7,1.7,13.6,1.7 M13.6,0C6.1,0,0,6.1,0,13.6
		s6.1,13.6,13.6,13.6s13.6-6.1,13.6-13.6S21.1,0,13.6,0L13.6,0z"/>
</g>
<g>
	<circle class="st1" cx="13.6" cy="13.6" r="9"/>
</g>
</svg>
