<?xml version="1.0" encoding="utf-8"?>
<!-- Generator: Adobe Illustrator 25.0.0, SVG Export Plug-In . SVG Version: 6.00 Build 0)  -->
<svg version="1.1" id="Layer_1" xmlns="http://www.w3.org/2000/svg" xmlns:xlink="http://www.w3.org/1999/xlink" x="0px" y="0px"
	 viewBox="0 0 498 73" style="enable-background:new 0 0 498 73;" xml:space="preserve">
<style type="text/css">
	.st0{fill:#9EA77A;}
	.st1{enable-background:new    ;}
	.st2{fill:#F3F8F1;}
</style>
<path id="Rectangle" class="st0" d="M24,0h450c13.3,0,24,10.7,24,24v25c0,13.3-10.7,24-24,24H24C10.7,73,0,62.3,0,49V24
	C0,10.7,10.7,0,24,0z"/>
<g class="st1">
	<path class="st2" d="M206.9,45.2c-1.3,0-2.4-0.1-3.2-0.3c-0.8-0.2-1.5-0.5-2.1-0.8L202,43c0.6,0.3,1.3,0.6,2.1,0.8
		c0.8,0.2,1.7,0.3,2.8,0.3c0.7,0,1.3-0.1,1.9-0.2c0.6-0.2,1.1-0.4,1.5-0.7c0.4-0.3,0.8-0.7,1-1.2c0.2-0.5,0.4-1.1,0.4-1.8
		c0-0.7-0.1-1.3-0.4-1.8c-0.3-0.4-0.6-0.8-1.1-1.1c-0.4-0.3-1-0.5-1.5-0.7c-0.6-0.2-1.2-0.4-1.8-0.6c-0.6-0.2-1.3-0.4-1.9-0.7
		s-1.2-0.6-1.7-1c-0.5-0.4-0.9-0.9-1.2-1.5s-0.5-1.3-0.5-2.1c0-0.6,0.1-1.2,0.3-1.8c0.2-0.6,0.5-1.1,1-1.5c0.5-0.4,1-0.8,1.8-1
		c0.7-0.2,1.6-0.4,2.6-0.4c1,0,1.9,0.1,2.6,0.3c0.8,0.2,1.5,0.5,2,0.8l-0.4,1c-0.6-0.3-1.3-0.5-2-0.7c-0.8-0.2-1.5-0.3-2.2-0.3
		c-1.6,0-2.7,0.3-3.4,1c-0.7,0.7-1,1.5-1,2.6c0,0.6,0.1,1.1,0.3,1.6c0.2,0.4,0.5,0.8,0.9,1.1c0.4,0.3,0.9,0.6,1.4,0.8
		s1.1,0.5,1.8,0.7c0.7,0.2,1.4,0.5,2.1,0.8c0.7,0.3,1.3,0.6,1.8,1c0.5,0.4,0.9,0.9,1.3,1.4c0.3,0.6,0.5,1.3,0.5,2.1
		c0,0.8-0.1,1.6-0.4,2.2c-0.3,0.6-0.7,1.2-1.2,1.6c-0.5,0.4-1.2,0.8-1.9,1C208.6,45.1,207.8,45.2,206.9,45.2z"/>
	<path class="st2" d="M218.2,45h-1.3V26.1h1.3V45z"/>
	<path class="st2" d="M230.7,25.9c1.1,0,2.1,0.1,2.9,0.3s1.5,0.5,2,0.7l-0.3,1.1c-0.5-0.3-1.2-0.5-1.9-0.7c-0.8-0.2-1.6-0.3-2.5-0.3
		c-1.1,0-2.1,0.2-3.1,0.5c-0.9,0.3-1.7,0.9-2.4,1.6c-0.7,0.7-1.2,1.7-1.5,2.8c-0.4,1.1-0.5,2.5-0.5,4c0,1.2,0.1,2.3,0.4,3.2
		c0.3,1,0.7,1.8,1.3,2.5c0.6,0.7,1.2,1.3,2,1.7c0.8,0.4,1.7,0.6,2.7,0.6c0.7,0,1.3-0.1,2-0.4c0.6-0.3,1.2-0.7,1.7-1.2
		c0.5-0.5,0.9-1.1,1.2-1.8s0.4-1.4,0.4-2.3V36h-4V35h5.3v10h-0.9l-0.3-3.1c-0.5,0.9-1.2,1.7-2.1,2.4c-0.9,0.6-2,1-3.3,1
		c-1.2,0-2.2-0.2-3.2-0.7c-0.9-0.5-1.7-1.1-2.4-1.9c-0.7-0.8-1.2-1.8-1.5-2.9c-0.3-1.1-0.5-2.4-0.5-3.7c0-1.7,0.2-3.2,0.6-4.4
		c0.4-1.3,1-2.3,1.8-3.2s1.7-1.5,2.7-1.9S229.4,25.9,230.7,25.9z"/>
	<path class="st2" d="M251.6,40.6c0.3,0.5,0.6,1,0.9,1.5c0.3,0.4,0.5,0.9,0.7,1.2h0.1c-0.1-0.5-0.1-1.1-0.2-1.7c0-0.6,0-1.2,0-1.9
		V26.1h1.3V45H253l-9.2-14.4c-0.3-0.5-0.6-1-0.9-1.5c-0.3-0.4-0.5-0.9-0.7-1.2h-0.1c0.1,0.5,0.1,1.1,0.2,1.7c0,0.6,0,1.2,0,1.9V45
		h-1.3V26.1h1.4L251.6,40.6z"/>
	<path class="st2" d="M273.8,45.2c-1,0-1.9-0.1-2.8-0.4c-0.8-0.3-1.5-0.8-2.1-1.4s-1-1.4-1.4-2.4c-0.3-1-0.5-2.1-0.5-3.4V26.1h1.3
		v11.5c0,2.3,0.5,3.9,1.5,4.9s2.3,1.5,4,1.5s3-0.5,4-1.5c1-1,1.5-2.6,1.5-4.9V26.1h1.3v11.5c0,1.3-0.2,2.5-0.5,3.4
		c-0.3,1-0.8,1.7-1.4,2.4c-0.6,0.6-1.3,1.1-2.1,1.4C275.7,45.1,274.8,45.2,273.8,45.2z"/>
	<path class="st2" d="M297.2,31.8c0,0.9-0.2,1.7-0.5,2.4s-0.7,1.3-1.3,1.8c-0.5,0.5-1.2,0.9-2,1.1c-0.8,0.3-1.6,0.4-2.5,0.4h-4.2V45
		h-1.3V26.1h5.7c1,0,1.8,0.1,2.5,0.4c0.7,0.3,1.4,0.7,1.9,1.2c0.5,0.5,0.9,1.1,1.2,1.8S297.2,30.9,297.2,31.8z M295.9,31.8
		c0-1.4-0.4-2.5-1.2-3.3c-0.8-0.8-2-1.2-3.5-1.2h-4.4v9h4.2c1.5,0,2.7-0.4,3.6-1.2C295.4,34.3,295.9,33.2,295.9,31.8z"/>
</g>
</svg>
