<?xml version="1.0" encoding="utf-8"?>
<!-- Generator: Adobe Illustrator 25.0.0, SVG Export Plug-In . SVG Version: 6.00 Build 0)  -->
<svg version="1.1" id="Layer_1" xmlns="http://www.w3.org/2000/svg" xmlns:xlink="http://www.w3.org/1999/xlink" x="0px" y="0px"
	 viewBox="0 0 45 37.8" style="enable-background:new 0 0 45 37.8;" xml:space="preserve">
<style type="text/css">
	.st0{fill:#9EA77A;}
	.st1{enable-background:new    ;}
	.st2{fill:#F3F8F1;}
</style>
<g id="XL" transform="translate(-1181 -525)">
	<g id="Component_44_12" transform="translate(1181 530)">
		<path id="Rectangle_33_1_" class="st0" d="M4-5h37c2.2,0,4,1.8,4,4v25c0,2.2-1.8,4-4,4H4c-2.2,0-4-1.8-4-4V-1C0-3.2,1.8-5,4-5z"/>
	</g>
	<g class="st1">
		<path class="st2" d="M1198.4,540.6l6.4,9.4h-3.9l-4.5-7h-0.1l-4.5,7h-3.9l6.4-9.4l-6-8.8h3.9l4,6.3h0.1l4-6.3h3.9L1198.4,540.6z"
			/>
		<path class="st2" d="M1206.8,531.8l3.5,0V547h8v3h-11.6V531.8z"/>
	</g>
</g>
</svg>
