<?xml version="1.0" encoding="utf-8"?>
<!-- Generator: Adobe Illustrator 25.0.0, SVG Export Plug-In . SVG Version: 6.00 Build 0)  -->
<svg version="1.1" id="Layer_1" xmlns="http://www.w3.org/2000/svg" xmlns:xlink="http://www.w3.org/1999/xlink" x="0px" y="0px"
	 viewBox="0 0 45 37.8" style="enable-background:new 0 0 45 37.8;" xml:space="preserve">
<style type="text/css">
	.st0{fill:#9EA77A;}
	.st1{enable-background:new    ;}
	.st2{fill:#F3F8F1;}
</style>
<g id="Component_44_16" transform="translate(0 5)">
	<path id="Rectangle_33_1_" class="st0" d="M4-5h37c2.2,0,4,1.8,4,4v25c0,2.2-1.8,4-4,4H4c-2.2,0-4-1.8-4-4V-1C0-3.2,1.8-5,4-5z"/>
</g>
<g class="st1">
	<path class="st2" d="M17.4,15.6l6.4,9.4H20l-4.5-7h-0.1L11,25H7.1l6.4-9.4l-6-8.8h3.9l4,6.3h0.1l4-6.3h3.9L17.4,15.6z"/>
	<path class="st2" d="M30.7,25.3c-1.2,0-2.3-0.1-3.2-0.4c-1-0.2-1.8-0.6-2.6-1l0.9-2.9c0.6,0.4,1.4,0.7,2.2,0.9s1.6,0.4,2.4,0.4
		c1,0,1.9-0.2,2.6-0.6c0.7-0.4,1.1-1,1.1-1.9c0-0.4-0.1-0.8-0.3-1.1c-0.2-0.3-0.5-0.5-0.8-0.8s-0.7-0.4-1.2-0.6
		c-0.4-0.2-0.9-0.3-1.4-0.5c-0.6-0.2-1.2-0.4-1.8-0.7c-0.6-0.3-1.2-0.6-1.7-1c-0.5-0.4-1-0.9-1.3-1.6c-0.4-0.6-0.5-1.4-0.5-2.3
		c0-0.7,0.1-1.3,0.4-1.9c0.2-0.6,0.6-1.1,1.1-1.6c0.5-0.4,1.2-0.8,2-1.1c0.8-0.3,1.8-0.4,2.9-0.4c1,0,2,0.1,2.8,0.3
		c0.9,0.2,1.7,0.5,2.4,0.9l-0.9,2.7c-0.7-0.3-1.4-0.5-2.1-0.7c-0.7-0.2-1.4-0.2-2.1-0.2c-1.1,0-1.9,0.2-2.4,0.6s-0.8,0.9-0.8,1.4
		c0,0.4,0.1,0.8,0.3,1.1c0.2,0.3,0.5,0.6,0.8,0.8c0.3,0.2,0.7,0.4,1.1,0.6c0.4,0.2,0.8,0.3,1.3,0.5c0.6,0.2,1.3,0.5,2,0.7
		c0.7,0.3,1.3,0.6,1.8,1.1c0.5,0.4,1,1,1.3,1.6c0.3,0.6,0.5,1.4,0.5,2.3c0,0.9-0.2,1.7-0.5,2.4s-0.8,1.2-1.4,1.7
		c-0.6,0.5-1.3,0.8-2.1,1S31.6,25.3,30.7,25.3z"/>
</g>
</svg>
