<?xml version="1.0" encoding="utf-8"?>
<!-- Generator: Adobe Illustrator 25.0.0, SVG Export Plug-In . SVG Version: 6.00 Build 0)  -->
<svg version="1.1" id="Layer_1" xmlns="http://www.w3.org/2000/svg" xmlns:xlink="http://www.w3.org/1999/xlink" x="0px" y="0px"
	 viewBox="0 0 45 37.8" style="enable-background:new 0 0 45 37.8;" xml:space="preserve">
<style type="text/css">
	.st0{fill:#9EA77A;}
	.st1{enable-background:new    ;}
	.st2{fill:#F3F8F1;}
</style>
<g id="Component_44_14" transform="translate(0 5)">
	<path id="Rectangle_33_1_" class="st0" d="M4-5h37c2.2,0,4,1.8,4,4v25c0,2.2-1.8,4-4,4H4c-2.2,0-4-1.8-4-4V-1C0-3.2,1.8-5,4-5z"/>
</g>
<g class="st1">
	<path class="st2" d="M21.3,22.2l-2.9-6.7c-0.4-0.9-0.7-1.7-0.9-2.4c-0.2-0.7-0.5-1.5-0.7-2.3h-0.1c0.1,0.4,0.1,0.9,0.2,1.3
		c0.1,0.5,0.1,0.9,0.2,1.4c0,0.5,0.1,0.9,0.1,1.3c0,0.4,0,0.8,0,1.2V25h-3.4V6.8h3.9l3.7,8.4c0.4,0.8,0.7,1.6,0.9,2.4
		c0.2,0.8,0.4,1.5,0.5,2.2H23c0.1-0.7,0.3-1.4,0.5-2.2c0.2-0.8,0.5-1.6,0.9-2.4L28,6.8H32V25h-3.4v-8.9c0-0.3,0-0.7,0-1.2
		c0-0.4,0.1-0.9,0.1-1.3s0.1-0.9,0.2-1.4c0.1-0.5,0.1-0.9,0.2-1.3H29c-0.2,0.8-0.4,1.6-0.7,2.3c-0.2,0.7-0.5,1.5-0.9,2.4l-2.9,6.7
		H21.3z"/>
</g>
</svg>
