<?xml version="1.0" encoding="utf-8"?>
<!-- Generator: Adobe Illustrator 25.0.0, SVG Export Plug-In . SVG Version: 6.00 Build 0)  -->
<svg version="1.1" id="Layer_1" xmlns="http://www.w3.org/2000/svg" xmlns:xlink="http://www.w3.org/1999/xlink" x="0px" y="0px"
	 viewBox="0 0 45 37.8" style="enable-background:new 0 0 45 37.8;" xml:space="preserve">
<style type="text/css">
	.st0{fill:#9EA77A;}
	.st1{enable-background:new    ;}
	.st2{fill:#F3F8F1;}
</style>
<g id="S" transform="translate(-1016 -525)">
	<g id="Component_44_15" transform="translate(1016 530)">
		<path id="Rectangle_33" class="st0" d="M4-5h37c2.2,0,4,1.8,4,4v25c0,2.2-1.8,4-4,4H4c-2.2,0-4-1.8-4-4V-1C0-3.2,1.8-5,4-5z"/>
	</g>
	<g class="st1">
		<path class="st2" d="M1037.6,550.6c-1.2,0-2.3-0.1-3.2-0.4s-1.8-0.6-2.6-1l0.9-2.9c0.6,0.4,1.4,0.7,2.2,0.9
			c0.8,0.3,1.6,0.4,2.4,0.4c1,0,1.9-0.2,2.6-0.6c0.7-0.4,1.1-1,1.1-1.9c0-0.4-0.1-0.8-0.3-1.1s-0.5-0.5-0.8-0.8
			c-0.4-0.2-0.7-0.4-1.2-0.6c-0.4-0.2-0.9-0.3-1.4-0.5c-0.6-0.2-1.2-0.4-1.8-0.7c-0.6-0.3-1.2-0.6-1.7-1c-0.5-0.4-1-0.9-1.3-1.6
			c-0.4-0.6-0.5-1.4-0.5-2.3c0-0.7,0.1-1.3,0.4-1.9s0.6-1.1,1.1-1.6c0.5-0.4,1.2-0.8,2-1.1c0.8-0.3,1.8-0.4,2.9-0.4
			c1,0,2,0.1,2.8,0.3c0.9,0.2,1.7,0.5,2.4,0.9l-0.9,2.7c-0.7-0.3-1.4-0.5-2.1-0.7c-0.7-0.2-1.4-0.2-2.1-0.2c-1.1,0-1.9,0.2-2.4,0.6
			c-0.5,0.4-0.8,0.9-0.8,1.4c0,0.4,0.1,0.8,0.3,1.1c0.2,0.3,0.5,0.6,0.8,0.8c0.3,0.2,0.7,0.4,1.1,0.6s0.8,0.3,1.3,0.5
			c0.6,0.2,1.3,0.5,2,0.7c0.7,0.3,1.3,0.6,1.8,1.1c0.5,0.4,1,1,1.3,1.6c0.3,0.6,0.5,1.4,0.5,2.3c0,0.9-0.2,1.7-0.5,2.4
			s-0.8,1.2-1.4,1.7c-0.6,0.4-1.3,0.8-2.1,1C1039.5,550.4,1038.6,550.6,1037.6,550.6z"/>
	</g>
</g>
</svg>
