<?xml version="1.0" encoding="utf-8"?>
<!-- Generator: Adobe Illustrator 25.2.1, SVG Export Plug-In . SVG Version: 6.00 Build 0)  -->
<svg version="1.1" id="Layer_1" xmlns:serif="http://www.serif.com/"
	 xmlns="http://www.w3.org/2000/svg" xmlns:xlink="http://www.w3.org/1999/xlink" x="0px" y="0px" viewBox="0 0 612 612"
	 style="enable-background:new 0 0 612 612;" xml:space="preserve">
<style type="text/css">
	.st0{fill-rule:evenodd;clip-rule:evenodd;fill:#CE301B;}
</style>
<path class="st0" d="M306,0c168.9,0,306,137.1,306,306S474.9,612,306,612S0,474.9,0,306S137.1,0,306,0z M252.1,468.8
	c135.4,0,209.4-112.2,209.4-209.4c0-3.2,0-6.4-0.2-9.5c14.3-10.4,26.9-23.4,36.8-38.2c-13.1,5.8-27.3,9.8-42.3,11.6
	c15.3-9.2,26.9-23.5,32.4-40.8c-14.2,8.4-29.9,14.5-46.7,17.9c-13.4-14.3-32.5-23.2-53.7-23.2c-40.6,0-73.6,33-73.6,73.6
	c0,5.8,0.6,11.4,2,16.8c-61.2-3.1-115.4-32.4-151.7-76.9c-6.3,10.8-9.9,23.5-9.9,36.9c0,25.5,13,48.1,32.8,61.2
	c-12.1-0.3-23.4-3.7-33.3-9.2v0.9c0,35.7,25.3,65.3,59.1,72.2c-6.1,1.7-12.7,2.6-19.4,2.6c-4.7,0-9.3-0.5-13.9-1.4
	c9.3,29.3,36.5,50.5,68.7,51.1c-25.2,19.7-56.9,31.4-91.4,31.4c-6,0-11.8-0.3-17.6-1.1C171.8,456.5,210.6,468.8,252.1,468.8
	L252.1,468.8z"/>
</svg>
