<?xml version="1.0" encoding="utf-8"?>
<!-- Generator: Adobe Illustrator 24.3.0, SVG Export Plug-In . SVG Version: 6.00 Build 0)  -->
<svg version="1.1" id="Layer_1" xmlns:serif="http://www.serif.com/"
	 xmlns="http://www.w3.org/2000/svg" xmlns:xlink="http://www.w3.org/1999/xlink" x="0px" y="0px" viewBox="0 0 612 612"
	 style="enable-background:new 0 0 612 612;" xml:space="preserve">
<style type="text/css">
	.st0{fill-rule:evenodd;clip-rule:evenodd;fill:#F2F7F0;}
</style>
<path class="st0" d="M304.8,612l0.3,0H305L304.8,612L304.8,612z M307,612L307,612l0.2,0L307,612z M303.9,612l0.3,0H304L303.9,612z
	 M308,612h-0.2l0.3,0L308,612z M303,612l0.2,0L303,612L303,612L303,612z M309,612l-0.2,0L309,612L309,612L309,612z M310,612L310,612
	l0.2,0L310,612L310,612z M301.8,612l0.3,0l-0.1,0L301.8,612L301.8,612z M310.9,612l-0.2,0l0.3,0L310.9,612L310.9,612z M300.9,612
	l0.3,0l-0.2,0L300.9,612L300.9,612z M311.9,611.9l-0.2,0L311.9,611.9L311.9,611.9z M300,611.9l0.3,0L300,611.9L300,611.9L300,611.9z
	 M298.9,611.9l0.3,0l0,0L298.9,611.9L298.9,611.9z M312.9,611.9L312.9,611.9l0.2,0L312.9,611.9z M297.9,611.9l0.4,0l-0.1,0
	L297.9,611.9z M313.9,611.9l-0.1,0l0.4,0L313.9,611.9z M314.9,611.9l-0.2,0l0.4,0L314.9,611.9L314.9,611.9z M297,611.9l0.4,0l-0.2,0
	L297,611.9L297,611.9z M296.1,611.8l0.3,0L296.1,611.8l-0.2,0L296.1,611.8z M315.9,611.8l-0.3,0L315.9,611.8l0.2,0L315.9,611.8z
	 M316.8,611.8l-0.1,0l0.4,0L316.8,611.8z M294.9,611.8l0.4,0l-0.1,0L294.9,611.8z M294,611.8l0.4,0l-0.2,0L294,611.8z M317.8,611.8
	l-0.2,0l0.4,0L317.8,611.8z M293.1,611.7l0.4,0L293.1,611.7L293.1,611.7L293.1,611.7z M318.8,611.7l-0.3,0L318.8,611.7L318.8,611.7
	L318.8,611.7z M291.9,611.7l0.5,0l-0.1,0L291.9,611.7z M319.8,611.7l-0.1,0l0.5,0L319.8,611.7L319.8,611.7z M291,611.6l0.5,0l-0.2,0
	L291,611.6z M320.8,611.6l-0.2,0l0.5,0L320.8,611.6z M290.1,611.6l0.5,0l-0.3,0L290.1,611.6z M321.7,611.6l-0.3,0l0.5,0L321.7,611.6
	z M322.7,611.6l-0.4,0L322.7,611.6l0.4,0L322.7,611.6L322.7,611.6z M289.3,611.6l0.4,0L289.3,611.6l-0.5,0L289.3,611.6L289.3,611.6z
	 M323.7,611.5l-0.2,0l0.5,0L323.7,611.5z M288,611.5l0.5,0l-0.2,0L288,611.5z M287.2,611.4l0.5,0l-0.3,0L287.2,611.4L287.2,611.4z
	 M324.7,611.4l-0.3,0l0.5,0L324.7,611.4L324.7,611.4z M286.3,611.4l0.4,0L286.3,611.4l-0.4,0L286.3,611.4L286.3,611.4z M325.6,611.4
	l-0.4,0L325.6,611.4l0.4,0L325.6,611.4L325.6,611.4z M326.6,611.3l-0.1,0l0.5,0L326.6,611.3L326.6,611.3z M285.1,611.3l0.5,0l-0.1,0
	L285.1,611.3z M284.2,611.2l0.5,0l-0.2,0L284.2,611.2L284.2,611.2z M327.6,611.2l-0.2,0l0.5,0L327.6,611.2z M283.3,611.2l0.4,0
	L283.3,611.2L283.3,611.2L283.3,611.2z M328.6,611.2l-0.3,0L328.6,611.2L328.6,611.2L328.6,611.2z M282.2,611.1l0.4,0l-0.1,0
	L282.2,611.1z M329.5,611.1L329.5,611.1l0.3,0L329.5,611.1z M330.5,611l-0.2,0l0.4,0L330.5,611z M281.3,611l0.4,0l-0.2,0L281.3,611
	L281.3,611z M280.4,610.9l0.3,0L280.4,610.9L280.4,610.9z M331.5,611l-0.2,0L331.5,611L331.5,611z M279.5,610.9L279.5,610.9
	L279.5,610.9L279.5,610.9L279.5,610.9z M332.4,610.9L332.4,610.9L332.4,610.9L332.4,610.9L332.4,610.9z M333.4,610.8L333.4,610.8
	l0.1,0L333.4,610.8L333.4,610.8z M278.5,610.8l0.2,0l-0.1,0L278.5,610.8L278.5,610.8z M277.6,610.7l0.2,0L277.6,610.7L277.6,610.7z
	 M334.4,610.7l-0.1,0L334.4,610.7L334.4,610.7z M258.2,608.3C112,585.3,0,458.6,0,306C0,137.1,137.1,0,306,0s306,137.1,306,306
	c0,152.6-112,279.3-258.2,302.3V394.5h71.3l13.6-88.5h-84.9v-57.4c0-24.2,11.9-47.8,49.9-47.8h38.6v-75.3c0,0-35-6-68.5-6
	c-69.9,0-115.6,42.4-115.6,119.1V306h-77.7v88.5h77.7V608.3z"/>
</svg>
