<?xml version="1.0" encoding="utf-8"?>
<!-- Generator: Adobe Illustrator 25.0.0, SVG Export Plug-In . SVG Version: 6.00 Build 0)  -->
<svg version="1.1" id="Layer_1" xmlns="http://www.w3.org/2000/svg" xmlns:xlink="http://www.w3.org/1999/xlink" x="0px" y="0px"
	 viewBox="0 0 192.8 127" style="enable-background:new 0 0 192.8 127;" xml:space="preserve">
<style type="text/css">
	.st0{fill-rule:evenodd;clip-rule:evenodd;fill:#005883;}
	.st1{fill-rule:evenodd;clip-rule:evenodd;fill:#F2A62C;}
</style>
<g>
	<path class="st0" d="M189.9,17.7c0-9-4.7-13.4-13.7-13.4H16.6c-4.5,0-7.9,1.2-10,3.7c-2.5,2.5-3.7,5.7-3.7,9.8v91.1
		c0,4.1,1.2,7.2,3.7,9.8c2.5,2.5,5.8,3.7,10,3.7h159.6c9.1,0,13.7-4.5,13.7-13.4V17.7L189.9,17.7z M176.2,6.4
		c7.5,0,11.3,3.8,11.3,11.3v91.1c0,7.6-3.8,11.3-11.3,11.3H16.6c-3.6,0-6.4-1.1-8.4-3.2C6,114.9,5,112.1,5,108.8V17.7
		C5,10.2,8.7,6.4,16.6,6.4H176.2L176.2,6.4z"/>
	<path class="st0" d="M17.8,11.6c-3,0-5,0.5-6,1.6c-0.9,1.2-1.3,3.2-1.3,6.1V39h171.8V19.2c0-5.2-2.5-7.6-7.6-7.6H17.8L17.8,11.6z"
		/>
	<path class="st1" d="M10.5,107c0,5.2,2.5,7.9,7.4,7.9h156.8c5.1,0,7.6-2.7,7.6-7.9V87.2H10.5V107L10.5,107z"/>
	<path class="st0" d="M67.4,47.4c0,0.9-0.1,1.6-0.5,2.1L54.5,71.1l-0.8-26.3H33.9l6.7,3.2c1.9,1.2,2.9,2.8,2.9,4.7l1.8,27.9H55
		l23.2-35.9H66.3C67,45.4,67.4,46.4,67.4,47.4L67.4,47.4z"/>
	<path class="st0" d="M147.5,45.8l0.8-1.1h-12.1c0.4,0.4,0.6,0.6,0.6,0.8c-0.1,0.6-0.4,0.9-0.6,1.3L118.5,79
		c-0.4,0.6-0.8,1.1-1.3,1.6h10l-0.5-1.1c0-0.9,0.5-2.6,1.6-5l2.1-4h10.3c0.4,3.3,0.7,6.1,0.8,8.1l-0.8,1.9H153l-1.8-2.7L147.5,45.8
		L147.5,45.8z M140.1,65.6h-7.4l6.3-12.1L140.1,65.6L140.1,65.6z"/>
	<path class="st0" d="M109.5,42.9c-3.8,0-7.1,1.1-10,3.2c-3.2,1.8-4.7,4.2-4.7,7.1c0,3.3,1.1,6.2,3.4,8.4l6.9,4.7
		c2.5,1.8,3.7,3.3,3.7,4.7c0,1.3-0.6,2.5-1.8,3.5c-1.2,0.9-2.5,1.3-4.2,1.3c-2.5,0-6.7-1.8-12.6-5v6.6c4.6,2.8,9.1,4.2,13.4,4.2
		c4.1,0,7.6-1.1,10.5-3.7c3.2-2.3,4.7-5.1,4.7-8.1c0-2.5-1.1-4.9-3.7-7.4l-6.6-4.7c-2.2-1.8-3.4-3.3-3.4-4.5c0-2.8,1.6-4.2,5-4.2
		c2.3,0,5.6,1.3,10,4l1.3-6.9C117.7,44,113.8,42.9,109.5,42.9L109.5,42.9z"/>
	<path class="st0" d="M83.2,80.7c-0.1-1.5-0.4-2.8-0.6-4.2l9-29l2.1-2.6H80.8c0.1,0.6,0.3,1.5,0.4,2.1c0,0.6,0,1.4-0.1,2.1l-9,28.7
		l-1.8,2.9H83.2L83.2,80.7z"/>
</g>
</svg>
